<svg width="334" height="86" viewBox="0 0 334 86" fill="none" xmlns="http://www.w3.org/2000/svg">
<path d="M85.6 56.832C84.3413 56.832 83.4133 56.4373 82.816 55.648C82.2187 54.8373 81.92 53.6427 81.92 52.064C81.92 50.464 82.592 45.952 83.936 38.528L82.24 35.104C84.6507 33.5467 86.848 32.768 88.832 32.768C90.0907 32.768 90.8693 33.3653 91.168 34.56C93.5787 34.496 96.5867 33.952 100.192 32.928C100.363 33.632 100.448 34.3253 100.448 35.008C100.448 36.736 99.872 38.0373 98.72 38.912C97.5893 39.7867 96.128 40.224 94.336 40.224C93.12 40.224 91.9253 39.968 90.752 39.456C90.5813 40.416 90.2827 41.984 89.856 44.16C90.6453 44.3093 91.3173 44.384 91.872 44.384C92.7467 44.2133 93.7067 43.968 94.752 43.648C94.8587 44.0107 94.912 44.608 94.912 45.44C94.912 46.2507 94.5813 46.9013 93.92 47.392C93.2587 47.8827 92.512 48.128 91.68 48.128C90.8693 48.128 90.0373 48.032 89.184 47.84C88.9493 49.184 88.832 50.4533 88.832 51.648H94.016C95.6373 51.4133 97.2693 50.9973 98.912 50.4C99.04 50.784 99.104 51.3067 99.104 51.968C99.104 53.2267 98.7307 54.3467 97.984 55.328C97.2587 56.3093 96.2453 56.8 94.944 56.8C94.2613 56.8 93.2587 56.6613 91.936 56.384C90.6347 56.128 89.664 55.968 89.024 55.904C88 56.5227 86.8587 56.832 85.6 56.832ZM100.229 38.336C100.229 36.608 100.677 35.3067 101.573 34.432C102.469 33.5573 103.535 33.12 104.773 33.12C106.031 33.12 107.738 33.3333 109.893 33.76C112.047 34.1867 113.669 34.4107 114.757 34.432C116.57 34.0907 118.298 33.6747 119.941 33.184C120.111 33.7387 120.197 34.432 120.197 35.264C120.197 36.992 119.695 38.2933 118.693 39.168C117.711 40.0427 116.453 40.48 114.917 40.48C114.533 40.48 114.021 40.4587 113.381 40.416C112.207 46.5813 111.621 50.0267 111.621 50.752C111.621 52.8213 111.941 54.368 112.581 55.392C111.301 56.352 109.967 56.832 108.581 56.832C107.194 56.832 106.202 56.4373 105.605 55.648C105.007 54.8373 104.709 53.6427 104.709 52.064C104.709 50.464 105.327 46.2187 106.565 39.328C104.154 39.648 102.127 40.0107 100.485 40.416C100.314 39.8827 100.229 39.1893 100.229 38.336ZM124.636 56.832C123.249 56.832 122.257 56.4373 121.66 55.648C121.062 54.8373 120.764 53.6427 120.764 52.064C120.764 50.464 121.436 45.952 122.78 38.528L121.084 35.104C123.494 33.5467 125.692 32.768 127.676 32.768C128.934 32.768 129.713 33.3653 130.012 34.56C132.188 34.496 135.089 33.952 138.716 32.928C138.886 33.888 138.972 34.6987 138.972 35.36C138.972 36.7253 138.449 37.8027 137.404 38.592C136.38 39.36 135.185 39.744 133.82 39.744C132.454 39.744 131.089 39.4133 129.724 38.752C129.724 38.752 129.628 39.2747 129.436 40.32C129.286 41.152 129.041 42.4213 128.7 44.128C129.425 44.2987 130.108 44.384 130.748 44.384C131.622 44.2133 132.582 43.968 133.628 43.648C133.734 44.0107 133.788 44.608 133.788 45.44C133.788 46.2507 133.457 46.9013 132.796 47.392C132.134 47.8827 131.388 48.128 130.556 48.128C129.724 48.128 128.881 48.032 128.028 47.84C127.793 49.184 127.676 50.1547 127.676 50.752C127.676 52.8213 127.996 54.368 128.636 55.392C127.356 56.352 126.022 56.832 124.636 56.832ZM143.512 56.832C142.104 56.832 141.101 56.4373 140.504 55.648C139.906 54.8373 139.608 53.6427 139.608 52.064C139.608 50.464 140.28 45.952 141.624 38.528L139.928 35.104C142.338 33.5467 144.536 32.768 146.52 32.768C148.162 32.768 148.984 33.7707 148.984 35.776C148.984 36.3733 148.568 38.8693 147.736 43.264C146.925 47.6587 146.52 50.4533 146.52 51.648H149.976C151.597 51.4133 153.229 50.9973 154.872 50.4C155 50.784 155.064 51.3067 155.064 51.968C155.064 53.2267 154.69 54.3467 153.944 55.328C153.218 56.3093 152.205 56.8 150.904 56.8C150.029 56.8 148.514 56.5653 146.36 56.096C145.464 56.5867 144.514 56.832 143.512 56.832ZM161.202 56.832C159.815 56.832 158.823 56.4373 158.226 55.648C157.629 54.8373 157.33 53.6427 157.33 52.064C157.33 50.464 158.002 45.952 159.346 38.528L157.65 35.104C160.061 33.5467 162.258 32.768 164.242 32.768C165.885 32.768 166.706 33.7707 166.706 35.776C166.706 36.4373 166.29 38.9013 165.458 43.168C164.647 47.4133 164.242 49.9413 164.242 50.752C164.242 52.8213 164.562 54.368 165.202 55.392C163.922 56.352 162.589 56.832 161.202 56.832ZM185.704 56.8C184.275 56.8 183.144 56.4267 182.312 55.68C181.48 54.9333 180.467 53.44 179.272 51.2L177.928 48.704C176.478 50.432 175.752 51.9893 175.752 53.376C175.752 54.0587 175.848 54.6453 176.04 55.136C174.419 56.2453 172.84 56.8 171.304 56.8C170.174 56.8 169.331 56.512 168.776 55.936C168.243 55.36 167.976 54.6453 167.976 53.792C167.976 51.2533 170.526 48.1173 175.624 44.384L172.776 39.008C171.667 36.8747 170.366 35.5627 168.872 35.072C170.323 33.5573 172.04 32.8 174.024 32.8C175.454 32.8 176.584 33.1733 177.416 33.92C178.248 34.6667 179.262 36.16 180.456 38.4L181.768 40.896C183.262 39.1893 184.008 37.632 184.008 36.224C184.008 35.584 183.902 34.9973 183.688 34.464C185.331 33.3547 186.92 32.8 188.456 32.8C189.587 32.8 190.419 33.088 190.952 33.664C191.507 34.24 191.784 34.9547 191.784 35.808C191.784 38.496 189.246 41.696 184.168 45.408L186.952 50.592C188.062 52.7253 189.363 54.0373 190.856 54.528C189.406 56.0427 187.688 56.8 185.704 56.8ZM214.883 51.552L213.763 48.32C212.653 48.32 211.533 48.1493 210.403 47.808C210.168 49.1733 210.051 50.1547 210.051 50.752C210.051 52.8213 210.371 54.368 211.011 55.392C209.731 56.352 208.397 56.832 207.011 56.832C205.624 56.832 204.632 56.4373 204.035 55.648C203.437 54.8373 203.139 53.6427 203.139 52.064C203.139 50.464 203.811 45.952 205.155 38.528L203.459 35.104C205.848 33.568 208.045 32.8 210.051 32.8C211.587 32.8 212.771 33.12 213.603 33.76C215.203 33.12 216.643 32.8 217.923 32.8C219.885 32.8 221.443 33.4613 222.595 34.784C223.747 36.1067 224.323 37.696 224.323 39.552C224.323 40.9387 223.971 42.2827 223.267 43.584C222.563 44.864 221.528 45.9093 220.163 46.72C220.888 48.7893 221.699 50.5707 222.595 52.064C223.512 53.5573 224.419 54.5493 225.315 55.04C224.867 55.5093 224.173 55.9147 223.235 56.256C222.317 56.6187 221.485 56.8 220.739 56.8C219.288 56.8 218.125 56.4373 217.251 55.712C216.376 54.9653 215.587 53.5787 214.883 51.552ZM211.811 44.32C213.517 44.32 214.84 43.8827 215.779 43.008C216.739 42.1333 217.219 41.1947 217.219 40.192C217.219 39.1893 216.941 38.3893 216.387 37.792C215.832 37.1947 215.043 36.896 214.019 36.896C213.464 36.896 212.909 36.9707 212.355 37.12C211.672 41.1947 211.245 43.584 211.075 44.288C211.224 44.3093 211.469 44.32 211.811 44.32ZM230.64 56.832C229.253 56.832 228.261 56.4373 227.664 55.648C227.066 54.8373 226.768 53.6427 226.768 52.064C226.768 50.464 227.44 45.952 228.784 38.528L227.088 35.104C229.498 33.5467 231.696 32.768 233.68 32.768C235.322 32.768 236.144 33.7707 236.144 35.776C236.144 36.4373 235.728 38.9013 234.896 43.168C234.085 47.4133 233.68 49.9413 233.68 50.752C233.68 52.8213 234 54.368 234.64 55.392C233.36 56.352 232.026 56.832 230.64 56.832ZM246.118 48.992C245.99 49.76 245.926 50.3467 245.926 50.752C245.926 52.8213 246.246 54.368 246.886 55.392C245.606 56.352 244.272 56.832 242.886 56.832C241.499 56.832 240.507 56.4373 239.91 55.648C239.312 54.8373 239.014 53.6427 239.014 52.064C239.014 50.464 239.686 45.952 241.03 38.528L239.334 35.104C241.744 33.5467 243.942 32.768 245.926 32.768C246.48 32.768 247.088 32.8747 247.75 33.088C248.411 33.28 248.88 33.504 249.158 33.76C250.736 33.1413 252.198 32.832 253.542 32.832C255.547 32.832 257.126 33.536 258.278 34.944C259.451 36.3307 260.038 38.016 260.038 40C260.038 42.3893 259.174 44.5227 257.446 46.4C256.614 47.3173 255.494 48.0533 254.086 48.608C252.678 49.1627 251.238 49.44 249.766 49.44C248.315 49.44 247.099 49.2907 246.118 48.992ZM246.726 45.344C247.024 45.408 247.334 45.44 247.654 45.44C249.019 45.44 250.235 44.96 251.302 44C252.368 43.04 252.902 41.856 252.902 40.448C252.902 39.4667 252.614 38.6347 252.038 37.952C251.483 37.2693 250.694 36.928 249.67 36.928C249.243 36.928 248.752 37.0133 248.198 37.184C247.771 40.1067 247.28 42.8267 246.726 45.344ZM270.425 46.208C270.425 42.1547 271.556 38.912 273.817 36.48C276.078 34.0267 279.172 32.8 283.097 32.8C284.356 32.8 285.252 33.056 285.785 33.568C286.34 34.0587 286.617 34.8267 286.617 35.872C286.617 36.0213 286.596 36.3093 286.553 36.736C287.342 36.096 288.217 35.776 289.177 35.776C290.478 35.776 291.588 36.3627 292.505 37.536C293.444 38.688 293.913 40.3627 293.913 42.56C293.913 44.7573 293.561 46.7733 292.857 48.608C292.153 50.4427 291.214 51.9467 290.041 53.12C288.889 54.2933 287.566 55.2 286.073 55.84C284.601 56.48 283.076 56.8 281.497 56.8C278.084 56.8 275.385 55.8293 273.401 53.888C271.417 51.9253 270.425 49.3653 270.425 46.208ZM286.393 47.712C285.028 46.048 284.345 44.256 284.345 42.336C284.345 40.416 284.772 38.8693 285.625 37.696C285.241 37.632 284.857 37.6 284.473 37.6C282.958 37.6 281.646 38.0587 280.537 38.976C278.446 40.6827 277.401 43.0507 277.401 46.08C277.401 47.808 277.785 49.248 278.553 50.4C279.321 51.552 280.388 52.128 281.753 52.128C282.798 52.128 283.748 51.7227 284.601 50.912C285.476 50.08 286.073 49.0133 286.393 47.712ZM300.198 56.832C298.812 56.832 297.82 56.4373 297.222 55.648C296.625 54.8373 296.326 53.6427 296.326 52.064C296.326 50.464 296.998 45.952 298.342 38.528L296.646 35.104C299.057 33.5467 301.254 32.768 303.238 32.768C304.497 32.768 305.276 33.3653 305.574 34.56C307.75 34.496 310.652 33.952 314.278 32.928C314.449 33.888 314.534 34.6987 314.534 35.36C314.534 36.7253 314.012 37.8027 312.966 38.592C311.942 39.36 310.748 39.744 309.382 39.744C308.017 39.744 306.652 39.4133 305.286 38.752C305.286 38.752 305.19 39.2747 304.998 40.32C304.849 41.152 304.604 42.4213 304.262 44.128C304.988 44.2987 305.67 44.384 306.31 44.384C307.185 44.2133 308.145 43.968 309.19 43.648C309.297 44.0107 309.35 44.608 309.35 45.44C309.35 46.2507 309.02 46.9013 308.358 47.392C307.697 47.8827 306.95 48.128 306.118 48.128C305.286 48.128 304.444 48.032 303.59 47.84C303.356 49.184 303.238 50.1547 303.238 50.752C303.238 52.8213 303.558 54.368 304.198 55.392C302.918 56.352 301.585 56.832 300.198 56.832ZM319.042 56.832C317.655 56.832 316.663 56.4373 316.066 55.648C315.469 54.8373 315.17 53.6427 315.17 52.064C315.17 50.464 315.842 45.952 317.186 38.528L315.49 35.104C317.901 33.5467 320.098 32.768 322.082 32.768C323.341 32.768 324.119 33.3653 324.418 34.56C326.594 34.496 329.495 33.952 333.122 32.928C333.293 33.888 333.378 34.6987 333.378 35.36C333.378 36.7253 332.855 37.8027 331.81 38.592C330.786 39.36 329.591 39.744 328.226 39.744C326.861 39.744 325.495 39.4133 324.13 38.752C324.13 38.752 324.034 39.2747 323.842 40.32C323.693 41.152 323.447 42.4213 323.106 44.128C323.831 44.2987 324.514 44.384 325.154 44.384C326.029 44.2133 326.989 43.968 328.034 43.648C328.141 44.0107 328.194 44.608 328.194 45.44C328.194 46.2507 327.863 46.9013 327.202 47.392C326.541 47.8827 325.794 48.128 324.962 48.128C324.13 48.128 323.287 48.032 322.434 47.84C322.199 49.184 322.082 50.1547 322.082 50.752C322.082 52.8213 322.402 54.368 323.042 55.392C321.762 56.352 320.429 56.832 319.042 56.832Z" fill="#E50913"/>
<path d="M63.8579 71.8347H45.0226L42.5349 20.9156L41.4688 12.325L50.993 3.73438L61.157 11.3098L63.8579 71.8347Z" fill="url(#paint0_linear_248_3869)"/>
<path d="M63.8579 71.8347H45.0226L42.5349 20.9156L41.4688 12.325L50.993 3.73438L61.157 11.3098L63.8579 71.8347Z" fill="url(#paint1_linear_248_3869)" fill-opacity="0.2"/>
<path d="M63.8579 71.8347H45.0226L42.5349 20.9156L41.4688 12.325L50.993 3.73438L61.157 11.3098L63.8579 71.8347Z" fill="url(#paint2_linear_248_3869)" fill-opacity="0.2"/>
<g filter="url(#filter0_d_248_3869)">
<path d="M32.5632 11.5848L4 71.8318H22.7469C22.7469 71.8318 47.6197 16.0099 51.6053 11.5848C55.5908 7.15971 57.436 7.85842 61.2001 11.5848C64.9643 15.3112 45.9046 -16.2529 32.5632 11.5848Z" fill="#E50913"/>
</g>
<g filter="url(#filter1_d_248_3869)">
<path d="M74.0788 11.5848L45.5156 71.8318H64.2625C64.2625 71.8318 89.1354 16.0099 93.1209 11.5848C97.1065 7.15971 98.9516 7.85842 102.716 11.5848C106.48 15.3112 87.4202 -16.2529 74.0788 11.5848Z" fill="#E50913"/>
</g>
<defs>
<filter id="filter0_d_248_3869" x="0" y="0" width="65.6797" height="85.8281" filterUnits="userSpaceOnUse" color-interpolation-filters="sRGB">
<feFlood flood-opacity="0" result="BackgroundImageFix"/>
<feColorMatrix in="SourceAlpha" type="matrix" values="0 0 0 0 0 0 0 0 0 0 0 0 0 0 0 0 0 0 127 0" result="hardAlpha"/>
<feOffset dy="10"/>
<feGaussianBlur stdDeviation="2"/>
<feComposite in2="hardAlpha" operator="out"/>
<feColorMatrix type="matrix" values="0 0 0 0 0 0 0 0 0 0 0 0 0 0 0 0 0 0 0.3 0"/>
<feBlend mode="normal" in2="BackgroundImageFix" result="effect1_dropShadow_248_3869"/>
<feBlend mode="normal" in="SourceGraphic" in2="effect1_dropShadow_248_3869" result="shape"/>
</filter>
<filter id="filter1_d_248_3869" x="41.5156" y="0" width="65.6797" height="85.8281" filterUnits="userSpaceOnUse" color-interpolation-filters="sRGB">
<feFlood flood-opacity="0" result="BackgroundImageFix"/>
<feColorMatrix in="SourceAlpha" type="matrix" values="0 0 0 0 0 0 0 0 0 0 0 0 0 0 0 0 0 0 127 0" result="hardAlpha"/>
<feOffset dy="10"/>
<feGaussianBlur stdDeviation="2"/>
<feComposite in2="hardAlpha" operator="out"/>
<feColorMatrix type="matrix" values="0 0 0 0 0 0 0 0 0 0 0 0 0 0 0 0 0 0 0.3 0"/>
<feBlend mode="normal" in2="BackgroundImageFix" result="effect1_dropShadow_248_3869"/>
<feBlend mode="normal" in="SourceGraphic" in2="effect1_dropShadow_248_3869" result="shape"/>
</filter>
<linearGradient id="paint0_linear_248_3869" x1="57.1056" y1="-7.12106" x2="51.7467" y2="71.7724" gradientUnits="userSpaceOnUse">
<stop offset="0.215" stop-color="#FB1919"/>
<stop offset="0.4" stop-color="#FB1919"/>
<stop offset="0.745" stop-color="#861010" stop-opacity="0.5"/>
</linearGradient>
<linearGradient id="paint1_linear_248_3869" x1="31.9445" y1="6.38966" x2="71.4492" y2="74.8586" gradientUnits="userSpaceOnUse">
<stop stop-color="#0B0101"/>
<stop offset="0.065" stop-color="#0B0101" stop-opacity="0"/>
<stop offset="0.0651" stop-color="#0B0101"/>
<stop offset="0.275" stop-color="#0B0101"/>
<stop offset="0.425" stop-color="#0B0101"/>
<stop offset="0.565" stop-color="#0B0101"/>
<stop offset="0.715" stop-color="#0B0101"/>
<stop offset="0.812295" stop-color="#0E0606"/>
<stop offset="0.92" stop-color="#110B0B"/>
</linearGradient>
<linearGradient id="paint2_linear_248_3869" x1="52.6633" y1="3.73438" x2="52.6633" y2="71.8347" gradientUnits="userSpaceOnUse">
<stop offset="0.324497" stop-color="#0F0B0B" stop-opacity="0.25"/>
<stop offset="0.840397" stop-color="#0F0B0B"/>
</linearGradient>
</defs>
</svg>
