<svg width="650" height="289" viewBox="0 0 650 289" fill="none" xmlns="http://www.w3.org/2000/svg">
<path d="M222.487 262.194H153.737L144.657 76.3375L140.766 44.9812L175.53 13.625L212.629 41.2755L222.487 262.194Z" fill="url(#paint0_linear_248_3878)"/>
<path d="M222.487 262.194H153.737L144.657 76.3375L140.766 44.9812L175.53 13.625L212.629 41.2755L222.487 262.194Z" fill="url(#paint1_linear_248_3878)" fill-opacity="0.2"/>
<path d="M222.487 262.194H153.737L144.657 76.3375L140.766 44.9812L175.53 13.625L212.629 41.2755L222.487 262.194Z" fill="url(#paint2_linear_248_3878)" fill-opacity="0.2"/>
<g filter="url(#filter0_d_248_3878)">
<path d="M106.006 42.2544L4 262H70.9495C70.9495 262 159.776 58.3945 174.01 42.2544C188.243 26.1144 194.833 28.6629 208.275 42.2544C221.718 55.846 153.651 -59.2809 106.006 42.2544Z" fill="#E50913"/>
</g>
<g filter="url(#filter1_d_248_3878)">
<path d="M259.78 42.285L155.523 262.19H223.951C223.951 262.19 314.738 58.4368 329.285 42.285C343.833 26.1333 350.568 28.6836 364.307 42.285C378.046 55.8865 308.477 -59.3239 259.78 42.285Z" fill="#E50913"/>
</g>
<g filter="url(#filter2_d_248_3878)">
<path d="M260.4 263.248C258.512 263.248 257.12 262.656 256.224 261.472C255.328 260.256 254.88 258.464 254.88 256.096C254.88 253.696 255.888 246.928 257.904 235.792L255.36 230.656C258.976 228.32 262.272 227.152 265.248 227.152C267.136 227.152 268.304 228.048 268.752 229.84C272.368 229.744 276.88 228.928 282.288 227.392C282.544 228.448 282.672 229.488 282.672 230.512C282.672 233.104 281.808 235.056 280.08 236.368C278.384 237.68 276.192 238.336 273.504 238.336C271.68 238.336 269.888 237.952 268.128 237.184C267.872 238.624 267.424 240.976 266.784 244.24C267.968 244.464 268.976 244.576 269.808 244.576C271.12 244.32 272.56 243.952 274.128 243.472C274.288 244.016 274.368 244.912 274.368 246.16C274.368 247.376 273.872 248.352 272.88 249.088C271.888 249.824 270.768 250.192 269.52 250.192C268.304 250.192 267.056 250.048 265.776 249.76C265.424 251.776 265.248 253.68 265.248 255.472H273.024C275.456 255.12 277.904 254.496 280.368 253.6C280.56 254.176 280.656 254.96 280.656 255.952C280.656 257.84 280.096 259.52 278.976 260.992C277.888 262.464 276.368 263.2 274.416 263.2C273.392 263.2 271.888 262.992 269.904 262.576C267.952 262.192 266.496 261.952 265.536 261.856C264 262.784 262.288 263.248 260.4 263.248ZM282.343 235.504C282.343 232.912 283.015 230.96 284.359 229.648C285.703 228.336 287.303 227.68 289.159 227.68C291.047 227.68 293.607 228 296.839 228.64C300.071 229.28 302.503 229.616 304.135 229.648C306.855 229.136 309.447 228.512 311.911 227.776C312.167 228.608 312.295 229.648 312.295 230.896C312.295 233.488 311.543 235.44 310.039 236.752C308.567 238.064 306.679 238.72 304.375 238.72C303.799 238.72 303.031 238.688 302.071 238.624C300.311 247.872 299.431 253.04 299.431 254.128C299.431 257.232 299.911 259.552 300.871 261.088C298.951 262.528 296.951 263.248 294.871 263.248C292.791 263.248 291.303 262.656 290.407 261.472C289.511 260.256 289.063 258.464 289.063 256.096C289.063 253.696 289.991 247.328 291.847 236.992C288.231 237.472 285.191 238.016 282.727 238.624C282.471 237.824 282.343 236.784 282.343 235.504ZM318.954 263.248C316.874 263.248 315.386 262.656 314.49 261.472C313.594 260.256 313.146 258.464 313.146 256.096C313.146 253.696 314.154 246.928 316.17 235.792L313.626 230.656C317.242 228.32 320.538 227.152 323.514 227.152C325.402 227.152 326.57 228.048 327.018 229.84C330.282 229.744 334.634 228.928 340.074 227.392C340.33 228.832 340.458 230.048 340.458 231.04C340.458 233.088 339.674 234.704 338.106 235.888C336.57 237.04 334.778 237.616 332.73 237.616C330.682 237.616 328.634 237.12 326.586 236.128C326.586 236.128 326.442 236.912 326.154 238.48C325.93 239.728 325.562 241.632 325.05 244.192C326.138 244.448 327.162 244.576 328.122 244.576C329.434 244.32 330.874 243.952 332.442 243.472C332.602 244.016 332.682 244.912 332.682 246.16C332.682 247.376 332.186 248.352 331.194 249.088C330.202 249.824 329.082 250.192 327.834 250.192C326.586 250.192 325.322 250.048 324.042 249.76C323.69 251.776 323.514 253.232 323.514 254.128C323.514 257.232 323.994 259.552 324.954 261.088C323.034 262.528 321.034 263.248 318.954 263.248ZM347.267 263.248C345.155 263.248 343.651 262.656 342.755 261.472C341.859 260.256 341.411 258.464 341.411 256.096C341.411 253.696 342.419 246.928 344.435 235.792L341.891 230.656C345.507 228.32 348.803 227.152 351.779 227.152C354.243 227.152 355.475 228.656 355.475 231.664C355.475 232.56 354.851 236.304 353.603 242.896C352.387 249.488 351.779 253.68 351.779 255.472H356.963C359.395 255.12 361.843 254.496 364.307 253.6C364.499 254.176 364.595 254.96 364.595 255.952C364.595 257.84 364.035 259.52 362.915 260.992C361.827 262.464 360.307 263.2 358.355 263.2C357.043 263.2 354.771 262.848 351.539 262.144C350.195 262.88 348.771 263.248 347.267 263.248ZM373.803 263.248C371.723 263.248 370.235 262.656 369.339 261.472C368.443 260.256 367.995 258.464 367.995 256.096C367.995 253.696 369.003 246.928 371.019 235.792L368.475 230.656C372.091 228.32 375.387 227.152 378.363 227.152C380.827 227.152 382.059 228.656 382.059 231.664C382.059 232.656 381.435 236.352 380.187 242.752C378.971 249.12 378.363 252.912 378.363 254.128C378.363 257.232 378.843 259.552 379.803 261.088C377.883 262.528 375.883 263.248 373.803 263.248ZM410.556 263.2C408.412 263.2 406.716 262.64 405.468 261.52C404.22 260.4 402.7 258.16 400.908 254.8L398.892 251.056C396.716 253.648 395.628 255.984 395.628 258.064C395.628 259.088 395.772 259.968 396.06 260.704C393.628 262.368 391.26 263.2 388.956 263.2C387.26 263.2 385.996 262.768 385.164 261.904C384.364 261.04 383.964 259.968 383.964 258.688C383.964 254.88 387.788 250.176 395.436 244.576L391.164 236.512C389.5 233.312 387.548 231.344 385.308 230.608C387.484 228.336 390.06 227.2 393.036 227.2C395.18 227.2 396.876 227.76 398.124 228.88C399.372 230 400.892 232.24 402.684 235.6L404.652 239.344C406.892 236.784 408.012 234.448 408.012 232.336C408.012 231.376 407.852 230.496 407.532 229.696C409.996 228.032 412.38 227.2 414.684 227.2C416.38 227.2 417.628 227.632 418.428 228.496C419.26 229.36 419.676 230.432 419.676 231.712C419.676 235.744 415.868 240.544 408.252 246.112L412.428 253.888C414.092 257.088 416.044 259.056 418.284 259.792C416.108 262.064 413.532 263.2 410.556 263.2ZM454.324 255.328L452.644 250.48C450.98 250.48 449.3 250.224 447.604 249.712C447.252 251.76 447.076 253.232 447.076 254.128C447.076 257.232 447.556 259.552 448.516 261.088C446.596 262.528 444.596 263.248 442.516 263.248C440.436 263.248 438.948 262.656 438.052 261.472C437.156 260.256 436.708 258.464 436.708 256.096C436.708 253.696 437.716 246.928 439.732 235.792L437.188 230.656C440.772 228.352 444.068 227.2 447.076 227.2C449.38 227.2 451.156 227.68 452.404 228.64C454.804 227.68 456.964 227.2 458.884 227.2C461.828 227.2 464.164 228.192 465.892 230.176C467.62 232.16 468.484 234.544 468.484 237.328C468.484 239.408 467.956 241.424 466.9 243.376C465.844 245.296 464.292 246.864 462.244 248.08C463.332 251.184 464.548 253.856 465.892 256.096C467.268 258.336 468.628 259.824 469.972 260.56C469.3 261.264 468.26 261.872 466.852 262.384C465.476 262.928 464.228 263.2 463.108 263.2C460.932 263.2 459.188 262.656 457.876 261.568C456.564 260.448 455.38 258.368 454.324 255.328ZM449.716 244.48C452.276 244.48 454.26 243.824 455.668 242.512C457.108 241.2 457.828 239.792 457.828 238.288C457.828 236.784 457.412 235.584 456.58 234.688C455.748 233.792 454.564 233.344 453.028 233.344C452.196 233.344 451.364 233.456 450.532 233.68C449.508 239.792 448.868 243.376 448.612 244.432C448.836 244.464 449.204 244.48 449.716 244.48ZM477.959 263.248C475.879 263.248 474.391 262.656 473.495 261.472C472.599 260.256 472.151 258.464 472.151 256.096C472.151 253.696 473.159 246.928 475.175 235.792L472.631 230.656C476.247 228.32 479.543 227.152 482.519 227.152C484.983 227.152 486.215 228.656 486.215 231.664C486.215 232.656 485.591 236.352 484.343 242.752C483.127 249.12 482.519 252.912 482.519 254.128C482.519 257.232 482.999 259.552 483.959 261.088C482.039 262.528 480.039 263.248 477.959 263.248ZM501.177 251.488C500.985 252.64 500.889 253.52 500.889 254.128C500.889 257.232 501.369 259.552 502.329 261.088C500.409 262.528 498.409 263.248 496.329 263.248C494.249 263.248 492.761 262.656 491.865 261.472C490.969 260.256 490.521 258.464 490.521 256.096C490.521 253.696 491.529 246.928 493.545 235.792L491.001 230.656C494.617 228.32 497.913 227.152 500.889 227.152C501.721 227.152 502.633 227.312 503.625 227.632C504.617 227.92 505.321 228.256 505.737 228.64C508.105 227.712 510.297 227.248 512.313 227.248C515.321 227.248 517.689 228.304 519.417 230.416C521.177 232.496 522.057 235.024 522.057 238C522.057 241.584 520.761 244.784 518.169 247.6C516.921 248.976 515.241 250.08 513.129 250.912C511.017 251.744 508.857 252.16 506.649 252.16C504.473 252.16 502.649 251.936 501.177 251.488ZM502.089 246.016C502.537 246.112 503.001 246.16 503.481 246.16C505.529 246.16 507.353 245.44 508.953 244C510.553 242.56 511.353 240.784 511.353 238.672C511.353 237.2 510.921 235.952 510.057 234.928C509.225 233.904 508.041 233.392 506.505 233.392C505.865 233.392 505.129 233.52 504.297 233.776C503.657 238.16 502.921 242.24 502.089 246.016ZM537.638 247.312C537.638 241.232 539.334 236.368 542.726 232.72C546.118 229.04 550.758 227.2 556.646 227.2C558.534 227.2 559.878 227.584 560.677 228.352C561.51 229.088 561.926 230.24 561.926 231.808C561.926 232.032 561.894 232.464 561.83 233.104C563.014 232.144 564.326 231.664 565.766 231.664C567.718 231.664 569.382 232.544 570.758 234.304C572.166 236.032 572.87 238.544 572.87 241.84C572.87 245.136 572.342 248.16 571.286 250.912C570.23 253.664 568.822 255.92 567.062 257.68C565.334 259.44 563.35 260.8 561.109 261.76C558.902 262.72 556.614 263.2 554.246 263.2C549.126 263.2 545.078 261.744 542.102 258.832C539.126 255.888 537.638 252.048 537.638 247.312ZM561.59 249.568C559.542 247.072 558.518 244.384 558.518 241.504C558.518 238.624 559.158 236.304 560.438 234.544C559.862 234.448 559.286 234.4 558.71 234.4C556.438 234.4 554.47 235.088 552.806 236.464C549.67 239.024 548.102 242.576 548.102 247.12C548.102 249.712 548.678 251.872 549.83 253.6C550.982 255.328 552.582 256.192 554.63 256.192C556.198 256.192 557.622 255.584 558.902 254.368C560.214 253.12 561.11 251.52 561.59 249.568ZM582.297 263.248C580.217 263.248 578.729 262.656 577.833 261.472C576.937 260.256 576.489 258.464 576.489 256.096C576.489 253.696 577.497 246.928 579.513 235.792L576.969 230.656C580.585 228.32 583.881 227.152 586.857 227.152C588.745 227.152 589.913 228.048 590.361 229.84C593.625 229.744 597.977 228.928 603.417 227.392C603.673 228.832 603.801 230.048 603.801 231.04C603.801 233.088 603.017 234.704 601.449 235.888C599.913 237.04 598.121 237.616 596.073 237.616C594.025 237.616 591.977 237.12 589.929 236.128C589.929 236.128 589.785 236.912 589.497 238.48C589.273 239.728 588.905 241.632 588.393 244.192C589.481 244.448 590.505 244.576 591.465 244.576C592.777 244.32 594.217 243.952 595.785 243.472C595.945 244.016 596.025 244.912 596.025 246.16C596.025 247.376 595.529 248.352 594.537 249.088C593.545 249.824 592.425 250.192 591.177 250.192C589.929 250.192 588.665 250.048 587.385 249.76C587.033 251.776 586.857 253.232 586.857 254.128C586.857 257.232 587.337 259.552 588.297 261.088C586.377 262.528 584.377 263.248 582.297 263.248ZM610.563 263.248C608.483 263.248 606.995 262.656 606.099 261.472C605.203 260.256 604.755 258.464 604.755 256.096C604.755 253.696 605.763 246.928 607.779 235.792L605.235 230.656C608.851 228.32 612.147 227.152 615.123 227.152C617.011 227.152 618.179 228.048 618.627 229.84C621.891 229.744 626.243 228.928 631.683 227.392C631.939 228.832 632.067 230.048 632.067 231.04C632.067 233.088 631.283 234.704 629.715 235.888C628.179 237.04 626.387 237.616 624.339 237.616C622.291 237.616 620.243 237.12 618.195 236.128C618.195 236.128 618.051 236.912 617.763 238.48C617.539 239.728 617.171 241.632 616.659 244.192C617.747 244.448 618.771 244.576 619.731 244.576C621.043 244.32 622.483 243.952 624.051 243.472C624.211 244.016 624.291 244.912 624.291 246.16C624.291 247.376 623.795 248.352 622.803 249.088C621.811 249.824 620.691 250.192 619.443 250.192C618.195 250.192 616.931 250.048 615.651 249.76C615.299 251.776 615.123 253.232 615.123 254.128C615.123 257.232 615.603 259.552 616.563 261.088C614.643 262.528 612.643 263.248 610.563 263.248Z" fill="#FB1919"/>
</g>
<defs>
<filter id="filter0_d_248_3878" x="0" y="0" width="214" height="276" filterUnits="userSpaceOnUse" color-interpolation-filters="sRGB">
<feFlood flood-opacity="0" result="BackgroundImageFix"/>
<feColorMatrix in="SourceAlpha" type="matrix" values="0 0 0 0 0 0 0 0 0 0 0 0 0 0 0 0 0 0 127 0" result="hardAlpha"/>
<feOffset dy="10"/>
<feGaussianBlur stdDeviation="2"/>
<feComposite in2="hardAlpha" operator="out"/>
<feColorMatrix type="matrix" values="0 0 0 0 0 0 0 0 0 0 0 0 0 0 0 0 0 0 0.3 0"/>
<feBlend mode="normal" in2="BackgroundImageFix" result="effect1_dropShadow_248_3878"/>
<feBlend mode="normal" in="SourceGraphic" in2="effect1_dropShadow_248_3878" result="shape"/>
</filter>
<filter id="filter1_d_248_3878" x="151.523" y="0" width="218.547" height="276.188" filterUnits="userSpaceOnUse" color-interpolation-filters="sRGB">
<feFlood flood-opacity="0" result="BackgroundImageFix"/>
<feColorMatrix in="SourceAlpha" type="matrix" values="0 0 0 0 0 0 0 0 0 0 0 0 0 0 0 0 0 0 127 0" result="hardAlpha"/>
<feOffset dy="10"/>
<feGaussianBlur stdDeviation="2"/>
<feComposite in2="hardAlpha" operator="out"/>
<feColorMatrix type="matrix" values="0 0 0 0 0 0 0 0 0 0 0 0 0 0 0 0 0 0 0.3 0"/>
<feBlend mode="normal" in2="BackgroundImageFix" result="effect1_dropShadow_248_3878"/>
<feBlend mode="normal" in="SourceGraphic" in2="effect1_dropShadow_248_3878" result="shape"/>
</filter>
<filter id="filter2_d_248_3878" x="250.883" y="227.148" width="385.188" height="50.1016" filterUnits="userSpaceOnUse" color-interpolation-filters="sRGB">
<feFlood flood-opacity="0" result="BackgroundImageFix"/>
<feColorMatrix in="SourceAlpha" type="matrix" values="0 0 0 0 0 0 0 0 0 0 0 0 0 0 0 0 0 0 127 0" result="hardAlpha"/>
<feOffset dy="10"/>
<feGaussianBlur stdDeviation="2"/>
<feComposite in2="hardAlpha" operator="out"/>
<feColorMatrix type="matrix" values="0 0 0 0 0 0 0 0 0 0 0 0 0 0 0 0 0 0 0.25 0"/>
<feBlend mode="normal" in2="BackgroundImageFix" result="effect1_dropShadow_248_3878"/>
<feBlend mode="normal" in="SourceGraphic" in2="effect1_dropShadow_248_3878" result="shape"/>
</filter>
<linearGradient id="paint0_linear_248_3878" x1="77" y1="-71.5" x2="177.736" y2="263.365" gradientUnits="userSpaceOnUse">
<stop offset="0.250111" stop-color="#FB1919"/>
<stop offset="0.511266" stop-color="#861010" stop-opacity="0.5"/>
<stop offset="0.689715" stop-color="#FB1919"/>
</linearGradient>
<linearGradient id="paint1_linear_248_3878" x1="106.002" y1="23.3169" x2="250.196" y2="273.232" gradientUnits="userSpaceOnUse">
<stop stop-color="#0B0101"/>
<stop offset="0.065" stop-color="#0B0101" stop-opacity="0"/>
<stop offset="0.0651" stop-color="#0B0101"/>
<stop offset="0.275" stop-color="#0B0101"/>
<stop offset="0.425" stop-color="#0B0101"/>
<stop offset="0.565" stop-color="#0B0101"/>
<stop offset="0.715" stop-color="#0B0101"/>
<stop offset="0.812295" stop-color="#0E0606"/>
<stop offset="0.92" stop-color="#110B0B"/>
</linearGradient>
<linearGradient id="paint2_linear_248_3878" x1="181.626" y1="13.625" x2="181.626" y2="262.194" gradientUnits="userSpaceOnUse">
<stop offset="0.324497" stop-color="#0F0B0B" stop-opacity="0.25"/>
<stop offset="0.840397" stop-color="#0F0B0B"/>
</linearGradient>
</defs>
</svg>
