<svg width="146" height="51" viewBox="0 0 146 51" fill="none" xmlns="http://www.w3.org/2000/svg">
<path d="M97.384 37.416C95.9547 37.416 94.6853 37.0533 93.576 36.328C92.4667 35.6027 91.592 34.6107 90.952 33.352C90.3333 32.072 90.024 30.6213 90.024 29C90.024 27.2933 90.3973 25.768 91.144 24.424C91.912 23.08 92.9787 22.0347 94.344 21.288C95.7093 20.52 97.32 20.136 99.176 20.136C100.989 20.136 102.547 20.5093 103.848 21.256C105.171 22.0027 106.195 23.0267 106.92 24.328C107.645 25.6293 108.008 27.1227 108.008 28.808V37H102.664V34.44H102.536C102.237 35.016 101.853 35.528 101.384 35.976C100.915 36.424 100.349 36.776 99.688 37.032C99.048 37.288 98.28 37.416 97.384 37.416ZM99.048 32.584C99.7307 32.584 100.317 32.424 100.808 32.104C101.299 31.7627 101.683 31.304 101.96 30.728C102.237 30.152 102.376 29.5013 102.376 28.776C102.376 28.0507 102.237 27.4213 101.96 26.888C101.683 26.3333 101.299 25.896 100.808 25.576C100.317 25.2347 99.7307 25.064 99.048 25.064C98.3867 25.064 97.8 25.2347 97.288 25.576C96.7973 25.896 96.4133 26.3333 96.136 26.888C95.8587 27.4213 95.72 28.0507 95.72 28.776C95.72 29.5013 95.8587 30.152 96.136 30.728C96.4133 31.304 96.7973 31.7627 97.288 32.104C97.8 32.424 98.3867 32.584 99.048 32.584Z" fill="#FD0B37"/>
<path d="M117.496 20.104C118.883 20.104 120.131 20.3173 121.24 20.744C122.349 21.1707 123.288 21.7893 124.056 22.6C124.845 23.3893 125.443 24.328 125.848 25.416C126.275 26.504 126.488 27.6987 126.488 29C126.488 30.664 126.147 32.1253 125.464 33.384C124.803 34.6427 123.875 35.624 122.68 36.328C121.485 37.032 120.131 37.384 118.616 37.384C118.019 37.384 117.443 37.3093 116.888 37.16C116.333 37.0107 115.832 36.7973 115.384 36.52C114.936 36.2213 114.541 35.8693 114.2 35.464H114.072V43.88H108.504V29.064C108.504 27.2507 108.877 25.672 109.624 24.328C110.371 22.984 111.416 21.9493 112.76 21.224C114.125 20.4773 115.704 20.104 117.496 20.104ZM117.496 24.936C116.856 24.936 116.28 25.1067 115.768 25.448C115.256 25.768 114.861 26.216 114.584 26.792C114.307 27.3467 114.168 27.9973 114.168 28.744C114.168 29.4267 114.307 30.056 114.584 30.632C114.861 31.1867 115.256 31.6347 115.768 31.976C116.28 32.296 116.856 32.456 117.496 32.456C118.179 32.456 118.765 32.296 119.256 31.976C119.768 31.6347 120.152 31.1867 120.408 30.632C120.685 30.056 120.824 29.4267 120.824 28.744C120.824 27.9973 120.685 27.3467 120.408 26.792C120.152 26.216 119.768 25.768 119.256 25.448C118.765 25.1067 118.179 24.936 117.496 24.936Z" fill="#FD0B37"/>
<path d="M135.496 20.104C136.883 20.104 138.131 20.3173 139.24 20.744C140.349 21.1707 141.288 21.7893 142.056 22.6C142.845 23.3893 143.443 24.328 143.848 25.416C144.275 26.504 144.488 27.6987 144.488 29C144.488 30.664 144.147 32.1253 143.464 33.384C142.803 34.6427 141.875 35.624 140.68 36.328C139.485 37.032 138.131 37.384 136.616 37.384C136.019 37.384 135.443 37.3093 134.888 37.16C134.333 37.0107 133.832 36.7973 133.384 36.52C132.936 36.2213 132.541 35.8693 132.2 35.464H132.072V43.88H126.504V29.064C126.504 27.2507 126.877 25.672 127.624 24.328C128.371 22.984 129.416 21.9493 130.76 21.224C132.125 20.4773 133.704 20.104 135.496 20.104ZM135.496 24.936C134.856 24.936 134.28 25.1067 133.768 25.448C133.256 25.768 132.861 26.216 132.584 26.792C132.307 27.3467 132.168 27.9973 132.168 28.744C132.168 29.4267 132.307 30.056 132.584 30.632C132.861 31.1867 133.256 31.6347 133.768 31.976C134.28 32.296 134.856 32.456 135.496 32.456C136.179 32.456 136.765 32.296 137.256 31.976C137.768 31.6347 138.152 31.1867 138.408 30.632C138.685 30.056 138.824 29.4267 138.824 28.744C138.824 27.9973 138.685 27.3467 138.408 26.792C138.152 26.216 137.768 25.768 137.256 25.448C136.765 25.1067 136.179 24.936 135.496 24.936Z" fill="#FD0B37"/>
<path d="M56.832 37.312C56 37.312 55.256 37.12 54.6 36.736C53.944 36.336 53.472 35.752 53.184 34.984L48 20.2H52.848L56.592 32.704C56.624 32.768 56.656 32.824 56.688 32.872C56.736 32.92 56.784 32.944 56.832 32.944C56.896 32.944 56.952 32.92 57 32.872C57.048 32.824 57.08 32.768 57.096 32.704L60.84 20.2H65.664L60.504 34.96C60.216 35.744 59.736 36.336 59.064 36.736C58.408 37.12 57.664 37.312 56.832 37.312Z" fill="#FD0B37"/>
<path d="M37.864 37.416C36.0933 37.416 34.472 37.128 33 36.552C31.528 35.9547 30.2587 35.1333 29.192 34.088C28.1467 33.0213 27.3253 31.784 26.728 30.376C26.152 28.968 25.864 27.4427 25.864 25.8C25.864 24.1573 26.152 22.632 26.728 21.224C27.3253 19.7947 28.1467 18.5573 29.192 17.512C30.2587 16.4667 31.528 15.656 33 15.08C34.472 14.4827 36.0933 14.184 37.864 14.184C39.656 14.184 41.2773 14.4827 42.728 15.08C44.2 15.656 45.4693 16.4667 46.536 17.512C47.6027 18.5573 48.424 19.7947 49 21.224C49.576 22.632 49.864 24.1573 49.864 25.8C49.864 27.4427 49.576 28.968 49 30.376C48.424 31.784 47.6027 33.0213 46.536 34.088C45.4693 35.1333 44.2 35.9547 42.728 36.552C41.2773 37.128 39.656 37.416 37.864 37.416ZM37.864 32.36C38.7387 32.36 39.528 32.2 40.232 31.88C40.9573 31.5387 41.576 31.0693 42.088 30.472C42.6213 29.8533 43.016 29.1493 43.272 28.36C43.5493 27.5707 43.688 26.7173 43.688 25.8C43.688 24.8827 43.5493 24.0293 43.272 23.24C43.016 22.4293 42.6213 21.7253 42.088 21.128C41.576 20.5307 40.9573 20.072 40.232 19.752C39.528 19.4107 38.7387 19.24 37.864 19.24C37.0107 19.24 36.2213 19.4107 35.496 19.752C34.7707 20.072 34.152 20.5307 33.64 21.128C33.128 21.7253 32.7333 22.4293 32.456 23.24C32.1787 24.0293 32.04 24.8827 32.04 25.8C32.04 26.7173 32.1787 27.5707 32.456 28.36C32.7333 29.1493 33.128 29.8533 33.64 30.472C34.152 31.0693 34.7707 31.5387 35.496 31.88C36.2213 32.2 37.0107 32.36 37.864 32.36Z" fill="#FD0B37"/>
<path d="M13.56 37.288C12.568 37.288 11.64 37.08 10.776 36.664C9.928 36.248 9.24 35.64 8.712 34.84C8.2 34.04 7.944 33.088 7.944 31.984V25.072C7.944 24.832 7.888 24.624 7.776 24.448C7.68 24.256 7.544 24.112 7.368 24.016C7.192 23.92 6.992 23.872 6.768 23.872C6.544 23.872 6.344 23.92 6.168 24.016C5.992 24.112 5.848 24.256 5.736 24.448C5.624 24.624 5.568 24.832 5.568 25.072V37H1.128V25.24C1.128 24.152 1.384 23.208 1.896 22.408C2.408 21.608 3.088 20.992 3.936 20.56C4.8 20.112 5.744 19.888 6.768 19.888C7.792 19.888 8.728 20.112 9.576 20.56C10.424 20.992 11.104 21.608 11.616 22.408C12.128 23.208 12.384 24.152 12.384 25.24V32.152C12.384 32.376 12.44 32.584 12.552 32.776C12.664 32.952 12.808 33.096 12.984 33.208C13.16 33.304 13.352 33.352 13.56 33.352C13.768 33.352 13.96 33.304 14.136 33.208C14.328 33.096 14.48 32.952 14.592 32.776C14.704 32.584 14.76 32.376 14.76 32.152V25.24C14.76 24.152 15.016 23.208 15.528 22.408C16.04 21.608 16.72 20.992 17.568 20.56C18.432 20.112 19.376 19.888 20.4 19.888C21.408 19.888 22.336 20.112 23.184 20.56C24.032 20.992 24.712 21.608 25.224 22.408C25.736 23.208 25.992 24.152 25.992 25.24V37H21.576V25.024C21.576 24.8 21.52 24.6 21.408 24.424C21.296 24.248 21.152 24.112 20.976 24.016C20.8 23.92 20.608 23.872 20.4 23.872C20.176 23.872 19.968 23.92 19.776 24.016C19.6 24.112 19.456 24.248 19.344 24.424C19.248 24.6 19.2 24.8 19.2 25.024V31.984C19.2 33.088 18.936 34.04 18.408 34.84C17.88 35.64 17.192 36.248 16.344 36.664C15.496 37.08 14.568 37.288 13.56 37.288Z" fill="#FD0B37"/>
<path d="M66.2 37V24.64H70.376V37H66.2ZM68.288 23.296C67.648 23.296 67.096 23.064 66.632 22.6C66.184 22.136 65.96 21.592 65.96 20.968C65.96 20.328 66.184 19.784 66.632 19.336C67.096 18.872 67.648 18.64 68.288 18.64C68.928 18.64 69.472 18.872 69.92 19.336C70.384 19.784 70.616 20.328 70.616 20.968C70.616 21.592 70.384 22.136 69.92 22.6C69.472 23.064 68.928 23.296 68.288 23.296Z" fill="#FD0B37"/>
<path d="M75.928 37C74.984 37 74.12 36.792 73.336 36.376C72.552 35.944 71.928 35.36 71.464 34.624C71.016 33.872 70.792 33.024 70.792 32.08C70.792 31.36 70.952 30.68 71.272 30.04C71.592 29.4 72.04 28.856 72.616 28.408C72.104 27.976 71.688 27.464 71.368 26.872C71.064 26.264 70.912 25.64 70.912 25C70.912 24.072 71.136 23.248 71.584 22.528C72.032 21.808 72.64 21.24 73.408 20.824C74.176 20.408 75.016 20.2 75.928 20.2H83.224V23.92H76.84C76.552 23.92 76.288 23.976 76.048 24.088C75.824 24.2 75.64 24.36 75.496 24.568C75.368 24.776 75.304 25.024 75.304 25.312C75.304 25.584 75.368 25.824 75.496 26.032C75.64 26.224 75.824 26.384 76.048 26.512C76.288 26.624 76.552 26.68 76.84 26.68H82.384V30.376H76.888C76.584 30.376 76.312 30.44 76.072 30.568C75.832 30.68 75.64 30.848 75.496 31.072C75.368 31.296 75.304 31.552 75.304 31.84C75.304 32.128 75.368 32.384 75.496 32.608C75.64 32.816 75.832 32.984 76.072 33.112C76.312 33.224 76.584 33.28 76.888 33.28H83.224V37H75.928Z" fill="#FD0B37"/>
</svg>
