<svg width="178" height="45" viewBox="0 0 178 45" fill="none" xmlns="http://www.w3.org/2000/svg">
<g filter="url(#filter0_d_238_3806)">
<mask id="path-1-outside-1_238_3806" maskUnits="userSpaceOnUse" x="98" y="7" width="34" height="25" fill="black">
<rect fill="white" x="98" y="7" width="34" height="25"/>
<path d="M130.104 29.624V31H121.688L119.608 26.168H110.232L108.152 31H99.736V29.624H103.416L112.504 8.632H117.336L126.392 29.624H130.104ZM114.936 15.288L112.12 21.784H117.72L114.936 15.288Z"/>
</mask>
<path d="M130.104 29.624V31H121.688L119.608 26.168H110.232L108.152 31H99.736V29.624H103.416L112.504 8.632H117.336L126.392 29.624H130.104ZM114.936 15.288L112.12 21.784H117.72L114.936 15.288Z" fill="#734AE7"/>
<path d="M130.104 29.624H131.104V28.624H130.104V29.624ZM130.104 31V32H131.104V31H130.104ZM121.688 31L120.769 31.3954L121.03 32H121.688V31ZM119.608 26.168L120.527 25.7726L120.266 25.168H119.608V26.168ZM110.232 26.168V25.168H109.574L109.313 25.7726L110.232 26.168ZM108.152 31V32H108.81L109.071 31.3954L108.152 31ZM99.736 31H98.736V32H99.736V31ZM99.736 29.624V28.624H98.736V29.624H99.736ZM103.416 29.624V30.624H104.073L104.334 30.0213L103.416 29.624ZM112.504 8.632V7.632H111.847L111.586 8.2347L112.504 8.632ZM117.336 8.632L118.254 8.23588L117.994 7.632H117.336V8.632ZM126.392 29.624L125.474 30.0201L125.734 30.624H126.392V29.624ZM114.936 15.288L115.855 14.8941L114.941 12.7617L114.019 14.8903L114.936 15.288ZM112.12 21.784L111.203 21.3863L110.597 22.784H112.12V21.784ZM117.72 21.784V22.784H119.237L118.639 21.3901L117.72 21.784ZM129.104 29.624V31H131.104V29.624H129.104ZM130.104 30H121.688V32H130.104V30ZM122.607 30.6046L120.527 25.7726L118.689 26.5634L120.769 31.3954L122.607 30.6046ZM119.608 25.168H110.232V27.168H119.608V25.168ZM109.313 25.7726L107.233 30.6046L109.071 31.3954L111.151 26.5634L109.313 25.7726ZM108.152 30H99.736V32H108.152V30ZM100.736 31V29.624H98.736V31H100.736ZM99.736 30.624H103.416V28.624H99.736V30.624ZM104.334 30.0213L113.422 9.02929L111.586 8.2347L102.498 29.2267L104.334 30.0213ZM112.504 9.632H117.336V7.632H112.504V9.632ZM116.418 9.02811L125.474 30.0201L127.31 29.2279L118.254 8.23588L116.418 9.02811ZM126.392 30.624H130.104V28.624H126.392V30.624ZM114.019 14.8903L111.203 21.3863L113.038 22.1817L115.854 15.6857L114.019 14.8903ZM112.12 22.784H117.72V20.784H112.12V22.784ZM118.639 21.3901L115.855 14.8941L114.017 15.6819L116.801 22.1779L118.639 21.3901Z" fill="#FFFDFD" mask="url(#path-1-outside-1_238_3806)"/>
</g>
<g filter="url(#filter1_d_238_3806)">
<mask id="path-3-outside-2_238_3806" maskUnits="userSpaceOnUse" x="128" y="13" width="20" height="19" fill="black">
<rect fill="white" x="128" y="13" width="20" height="19"/>
<path d="M146.248 29.968V31H129.736V29.968H132.064V14.224H137.992C140.568 14.224 142.44 14.728 143.608 15.736C144.792 16.728 145.384 18.264 145.384 20.344C145.384 22.408 144.776 23.92 143.56 24.88C142.36 25.84 140.52 26.32 138.04 26.32H135.808V29.968H146.248ZM138.328 23.08C139.576 23.08 140.424 22.832 140.872 22.336C141.32 21.824 141.544 21.088 141.544 20.128C141.544 19.152 141.248 18.464 140.656 18.064C140.08 17.648 139.176 17.44 137.944 17.44H135.808V23.08H138.328Z"/>
</mask>
<path d="M146.248 29.968V31H129.736V29.968H132.064V14.224H137.992C140.568 14.224 142.44 14.728 143.608 15.736C144.792 16.728 145.384 18.264 145.384 20.344C145.384 22.408 144.776 23.92 143.56 24.88C142.36 25.84 140.52 26.32 138.04 26.32H135.808V29.968H146.248ZM138.328 23.08C139.576 23.08 140.424 22.832 140.872 22.336C141.32 21.824 141.544 21.088 141.544 20.128C141.544 19.152 141.248 18.464 140.656 18.064C140.08 17.648 139.176 17.44 137.944 17.44H135.808V23.08H138.328Z" fill="#734AE7"/>
<path d="M146.248 29.968H147.248V28.968H146.248V29.968ZM146.248 31V32H147.248V31H146.248ZM129.736 31H128.736V32H129.736V31ZM129.736 29.968V28.968H128.736V29.968H129.736ZM132.064 29.968V30.968H133.064V29.968H132.064ZM132.064 14.224V13.224H131.064V14.224H132.064ZM143.608 15.736L142.955 16.4931L142.96 16.4978L142.966 16.5025L143.608 15.736ZM143.56 24.88L142.94 24.0951L142.935 24.0991L143.56 24.88ZM135.808 26.32V25.32H134.808V26.32H135.808ZM135.808 29.968H134.808V30.968H135.808V29.968ZM140.872 22.336L141.614 23.0063L141.619 23.0004L141.625 22.9945L140.872 22.336ZM140.656 18.064L140.071 18.8747L140.083 18.8838L140.096 18.8926L140.656 18.064ZM135.808 17.44V16.44H134.808V17.44H135.808ZM135.808 23.08H134.808V24.08H135.808V23.08ZM145.248 29.968V31H147.248V29.968H145.248ZM146.248 30H129.736V32H146.248V30ZM130.736 31V29.968H128.736V31H130.736ZM129.736 30.968H132.064V28.968H129.736V30.968ZM133.064 29.968V14.224H131.064V29.968H133.064ZM132.064 15.224H137.992V13.224H132.064V15.224ZM137.992 15.224C140.477 15.224 142.056 15.7173 142.955 16.4931L144.261 14.9789C142.824 13.7387 140.659 13.224 137.992 13.224V15.224ZM142.966 16.5025C143.851 17.2443 144.384 18.4512 144.384 20.344H146.384C146.384 18.0768 145.733 16.2117 144.25 14.9695L142.966 16.5025ZM144.384 20.344C144.384 22.2113 143.842 23.3835 142.94 24.0951L144.18 25.6649C145.71 24.4565 146.384 22.6047 146.384 20.344H144.384ZM142.935 24.0991C141.993 24.8533 140.423 25.32 138.04 25.32V27.32C140.617 27.32 142.727 26.8267 144.185 25.6609L142.935 24.0991ZM138.04 25.32H135.808V27.32H138.04V25.32ZM134.808 26.32V29.968H136.808V26.32H134.808ZM135.808 30.968H146.248V28.968H135.808V30.968ZM138.328 24.08C139.635 24.08 140.866 23.8347 141.614 23.0063L140.13 21.6657C139.982 21.8293 139.517 22.08 138.328 22.08V24.08ZM141.625 22.9945C142.287 22.2375 142.544 21.2314 142.544 20.128H140.544C140.544 20.9446 140.353 21.4105 140.119 21.6775L141.625 22.9945ZM142.544 20.128C142.544 18.9531 142.178 17.8853 141.216 17.2354L140.096 18.8926C140.318 19.0427 140.544 19.3509 140.544 20.128H142.544ZM141.241 17.2533C140.41 16.6528 139.249 16.44 137.944 16.44V18.44C139.103 18.44 139.75 18.6432 140.071 18.8747L141.241 17.2533ZM137.944 16.44H135.808V18.44H137.944V16.44ZM134.808 17.44V23.08H136.808V17.44H134.808ZM135.808 24.08H138.328V22.08H135.808V24.08Z" fill="#FFFDFD" mask="url(#path-3-outside-2_238_3806)"/>
</g>
<g filter="url(#filter2_d_238_3806)">
<mask id="path-5-outside-3_238_3806" maskUnits="userSpaceOnUse" x="145" y="13" width="20" height="19" fill="black">
<rect fill="white" x="145" y="13" width="20" height="19"/>
<path d="M163.248 29.968V31H146.736V29.968H149.064V14.224H154.992C157.568 14.224 159.44 14.728 160.608 15.736C161.792 16.728 162.384 18.264 162.384 20.344C162.384 22.408 161.776 23.92 160.56 24.88C159.36 25.84 157.52 26.32 155.04 26.32H152.808V29.968H163.248ZM155.328 23.08C156.576 23.08 157.424 22.832 157.872 22.336C158.32 21.824 158.544 21.088 158.544 20.128C158.544 19.152 158.248 18.464 157.656 18.064C157.08 17.648 156.176 17.44 154.944 17.44H152.808V23.08H155.328Z"/>
</mask>
<path d="M163.248 29.968V31H146.736V29.968H149.064V14.224H154.992C157.568 14.224 159.44 14.728 160.608 15.736C161.792 16.728 162.384 18.264 162.384 20.344C162.384 22.408 161.776 23.92 160.56 24.88C159.36 25.84 157.52 26.32 155.04 26.32H152.808V29.968H163.248ZM155.328 23.08C156.576 23.08 157.424 22.832 157.872 22.336C158.32 21.824 158.544 21.088 158.544 20.128C158.544 19.152 158.248 18.464 157.656 18.064C157.08 17.648 156.176 17.44 154.944 17.44H152.808V23.08H155.328Z" fill="#734AE7"/>
<path d="M163.248 29.968H164.248V28.968H163.248V29.968ZM163.248 31V32H164.248V31H163.248ZM146.736 31H145.736V32H146.736V31ZM146.736 29.968V28.968H145.736V29.968H146.736ZM149.064 29.968V30.968H150.064V29.968H149.064ZM149.064 14.224V13.224H148.064V14.224H149.064ZM160.608 15.736L159.955 16.4931L159.96 16.4978L159.966 16.5025L160.608 15.736ZM160.56 24.88L159.94 24.0951L159.935 24.0991L160.56 24.88ZM152.808 26.32V25.32H151.808V26.32H152.808ZM152.808 29.968H151.808V30.968H152.808V29.968ZM157.872 22.336L158.614 23.0063L158.619 23.0004L158.625 22.9945L157.872 22.336ZM157.656 18.064L157.071 18.8747L157.083 18.8838L157.096 18.8926L157.656 18.064ZM152.808 17.44V16.44H151.808V17.44H152.808ZM152.808 23.08H151.808V24.08H152.808V23.08ZM162.248 29.968V31H164.248V29.968H162.248ZM163.248 30H146.736V32H163.248V30ZM147.736 31V29.968H145.736V31H147.736ZM146.736 30.968H149.064V28.968H146.736V30.968ZM150.064 29.968V14.224H148.064V29.968H150.064ZM149.064 15.224H154.992V13.224H149.064V15.224ZM154.992 15.224C157.477 15.224 159.056 15.7173 159.955 16.4931L161.261 14.9789C159.824 13.7387 157.659 13.224 154.992 13.224V15.224ZM159.966 16.5025C160.851 17.2443 161.384 18.4512 161.384 20.344H163.384C163.384 18.0768 162.733 16.2117 161.25 14.9695L159.966 16.5025ZM161.384 20.344C161.384 22.2113 160.842 23.3835 159.94 24.0951L161.18 25.6649C162.71 24.4565 163.384 22.6047 163.384 20.344H161.384ZM159.935 24.0991C158.993 24.8533 157.423 25.32 155.04 25.32V27.32C157.617 27.32 159.727 26.8267 161.185 25.6609L159.935 24.0991ZM155.04 25.32H152.808V27.32H155.04V25.32ZM151.808 26.32V29.968H153.808V26.32H151.808ZM152.808 30.968H163.248V28.968H152.808V30.968ZM155.328 24.08C156.635 24.08 157.866 23.8347 158.614 23.0063L157.13 21.6657C156.982 21.8293 156.517 22.08 155.328 22.08V24.08ZM158.625 22.9945C159.287 22.2375 159.544 21.2314 159.544 20.128H157.544C157.544 20.9446 157.353 21.4105 157.119 21.6775L158.625 22.9945ZM159.544 20.128C159.544 18.9531 159.178 17.8853 158.216 17.2354L157.096 18.8926C157.318 19.0427 157.544 19.3509 157.544 20.128H159.544ZM158.241 17.2533C157.41 16.6528 156.249 16.44 154.944 16.44V18.44C156.103 18.44 156.75 18.6432 157.071 18.8747L158.241 17.2533ZM154.944 16.44H152.808V18.44H154.944V16.44ZM151.808 17.44V23.08H153.808V17.44H151.808ZM152.808 24.08H155.328V22.08H152.808V24.08Z" fill="#FFFDFD" mask="url(#path-5-outside-3_238_3806)"/>
</g>
<g filter="url(#filter3_d_238_3806)">
<mask id="path-7-outside-4_238_3806" maskUnits="userSpaceOnUse" x="53" y="13" width="21" height="19" fill="black">
<rect fill="white" x="53" y="13" width="21" height="19"/>
<path d="M71.512 29.968V31H55V29.968H61.24L54.928 14.224H58.984L63.256 24.904L67.528 14.224H71.584L65.248 29.968H71.512Z"/>
</mask>
<path d="M71.512 29.968V31H55V29.968H61.24L54.928 14.224H58.984L63.256 24.904L67.528 14.224H71.584L65.248 29.968H71.512Z" fill="#734AE7"/>
<path d="M71.512 29.968H72.512V28.968H71.512V29.968ZM71.512 31V32H72.512V31H71.512ZM55 31H54V32H55V31ZM55 29.968V28.968H54V29.968H55ZM61.24 29.968V30.968H62.7183L62.1682 29.5959L61.24 29.968ZM54.928 14.224V13.224H53.4497L53.9998 14.5961L54.928 14.224ZM58.984 14.224L59.9125 13.8526L59.661 13.224H58.984V14.224ZM63.256 24.904L62.3275 25.2754L63.256 27.5966L64.1845 25.2754L63.256 24.904ZM67.528 14.224V13.224H66.851L66.5995 13.8526L67.528 14.224ZM71.584 14.224L72.5117 14.5973L73.0644 13.224H71.584V14.224ZM65.248 29.968L64.3203 29.5947L63.7676 30.968H65.248V29.968ZM70.512 29.968V31H72.512V29.968H70.512ZM71.512 30H55V32H71.512V30ZM56 31V29.968H54V31H56ZM55 30.968H61.24V28.968H55V30.968ZM62.1682 29.5959L55.8562 13.8519L53.9998 14.5961L60.3118 30.3401L62.1682 29.5959ZM54.928 15.224H58.984V13.224H54.928V15.224ZM58.0555 14.5954L62.3275 25.2754L64.1845 24.5326L59.9125 13.8526L58.0555 14.5954ZM64.1845 25.2754L68.4565 14.5954L66.5995 13.8526L62.3275 24.5326L64.1845 25.2754ZM67.528 15.224H71.584V13.224H67.528V15.224ZM70.6563 13.8507L64.3203 29.5947L66.1757 30.3413L72.5117 14.5973L70.6563 13.8507ZM65.248 30.968H71.512V28.968H65.248V30.968Z" fill="#FFFDFD" mask="url(#path-7-outside-4_238_3806)"/>
</g>
<g filter="url(#filter4_d_238_3806)">
<mask id="path-9-outside-5_238_3806" maskUnits="userSpaceOnUse" x="71" y="7" width="13" height="25" fill="black">
<rect fill="white" x="71" y="7" width="13" height="25"/>
<path d="M82.496 29.624V31H72V29.624H74.752V8.632H79.744V29.624H82.496Z"/>
</mask>
<path d="M82.496 29.624V31H72V29.624H74.752V8.632H79.744V29.624H82.496Z" fill="#734AE7"/>
<path d="M82.496 29.624H83.496V28.624H82.496V29.624ZM82.496 31V32H83.496V31H82.496ZM72 31H71V32H72V31ZM72 29.624V28.624H71V29.624H72ZM74.752 29.624V30.624H75.752V29.624H74.752ZM74.752 8.632V7.632H73.752V8.632H74.752ZM79.744 8.632H80.744V7.632H79.744V8.632ZM79.744 29.624H78.744V30.624H79.744V29.624ZM81.496 29.624V31H83.496V29.624H81.496ZM82.496 30H72V32H82.496V30ZM73 31V29.624H71V31H73ZM72 30.624H74.752V28.624H72V30.624ZM75.752 29.624V8.632H73.752V29.624H75.752ZM74.752 9.632H79.744V7.632H74.752V9.632ZM78.744 8.632V29.624H80.744V8.632H78.744ZM79.744 30.624H82.496V28.624H79.744V30.624Z" fill="#FFFDFD" mask="url(#path-9-outside-5_238_3806)"/>
</g>
<g filter="url(#filter5_d_238_3806)">
<mask id="path-11-outside-6_238_3806" maskUnits="userSpaceOnUse" x="83" y="13" width="20" height="19" fill="black">
<rect fill="white" x="83" y="13" width="20" height="19"/>
<path d="M87.064 29.968V14.224H99.16V17.56H90.808V21.016H98.32V24.208H90.808V27.688H99.424V29.968H101.752V31H84.736V29.968H87.064Z"/>
</mask>
<path d="M87.064 29.968V14.224H99.16V17.56H90.808V21.016H98.32V24.208H90.808V27.688H99.424V29.968H101.752V31H84.736V29.968H87.064Z" fill="#734AE7"/>
<path d="M87.064 29.968V30.968H88.064V29.968H87.064ZM87.064 14.224V13.224H86.064V14.224H87.064ZM99.16 14.224H100.16V13.224H99.16V14.224ZM99.16 17.56V18.56H100.16V17.56H99.16ZM90.808 17.56V16.56H89.808V17.56H90.808ZM90.808 21.016H89.808V22.016H90.808V21.016ZM98.32 21.016H99.32V20.016H98.32V21.016ZM98.32 24.208V25.208H99.32V24.208H98.32ZM90.808 24.208V23.208H89.808V24.208H90.808ZM90.808 27.688H89.808V28.688H90.808V27.688ZM99.424 27.688H100.424V26.688H99.424V27.688ZM99.424 29.968H98.424V30.968H99.424V29.968ZM101.752 29.968H102.752V28.968H101.752V29.968ZM101.752 31V32H102.752V31H101.752ZM84.736 31H83.736V32H84.736V31ZM84.736 29.968V28.968H83.736V29.968H84.736ZM88.064 29.968V14.224H86.064V29.968H88.064ZM87.064 15.224H99.16V13.224H87.064V15.224ZM98.16 14.224V17.56H100.16V14.224H98.16ZM99.16 16.56H90.808V18.56H99.16V16.56ZM89.808 17.56V21.016H91.808V17.56H89.808ZM90.808 22.016H98.32V20.016H90.808V22.016ZM97.32 21.016V24.208H99.32V21.016H97.32ZM98.32 23.208H90.808V25.208H98.32V23.208ZM89.808 24.208V27.688H91.808V24.208H89.808ZM90.808 28.688H99.424V26.688H90.808V28.688ZM98.424 27.688V29.968H100.424V27.688H98.424ZM99.424 30.968H101.752V28.968H99.424V30.968ZM100.752 29.968V31H102.752V29.968H100.752ZM101.752 30H84.736V32H101.752V30ZM85.736 31V29.968H83.736V31H85.736ZM84.736 30.968H87.064V28.968H84.736V30.968Z" fill="#FFFDFD" mask="url(#path-11-outside-6_238_3806)"/>
</g>
<g filter="url(#filter6_d_238_3806)">
<mask id="path-13-outside-7_238_3806" maskUnits="userSpaceOnUse" x="28" y="7" width="29" height="25" fill="black">
<rect fill="white" x="28" y="7" width="29" height="25"/>
<path d="M55.432 29.624V31H29V29.624H36.136C34.3867 28.6213 33 27.2453 31.976 25.496C30.9733 23.7467 30.472 21.8053 30.472 19.672C30.472 16.3867 31.6027 13.6453 33.864 11.448C36.1253 9.22933 38.9093 8.12 42.216 8.12C45.5227 8.12 48.3067 9.22933 50.568 11.448C52.8293 13.6453 53.96 16.3867 53.96 19.672C53.96 21.8053 53.448 23.7467 52.424 25.496C51.4 27.2453 50.024 28.6213 48.296 29.624H55.432ZM48.872 19.704C48.872 17.6987 48.232 15.992 46.952 14.584C45.672 13.176 44.0933 12.472 42.216 12.472C40.36 12.472 38.792 13.176 37.512 14.584C36.232 15.992 35.592 17.6987 35.592 19.704C35.592 21.688 36.232 23.384 37.512 24.792C38.792 26.1787 40.36 26.872 42.216 26.872C44.0933 26.872 45.672 26.1787 46.952 24.792C48.232 23.384 48.872 21.688 48.872 19.704Z"/>
</mask>
<path d="M55.432 29.624V31H29V29.624H36.136C34.3867 28.6213 33 27.2453 31.976 25.496C30.9733 23.7467 30.472 21.8053 30.472 19.672C30.472 16.3867 31.6027 13.6453 33.864 11.448C36.1253 9.22933 38.9093 8.12 42.216 8.12C45.5227 8.12 48.3067 9.22933 50.568 11.448C52.8293 13.6453 53.96 16.3867 53.96 19.672C53.96 21.8053 53.448 23.7467 52.424 25.496C51.4 27.2453 50.024 28.6213 48.296 29.624H55.432ZM48.872 19.704C48.872 17.6987 48.232 15.992 46.952 14.584C45.672 13.176 44.0933 12.472 42.216 12.472C40.36 12.472 38.792 13.176 37.512 14.584C36.232 15.992 35.592 17.6987 35.592 19.704C35.592 21.688 36.232 23.384 37.512 24.792C38.792 26.1787 40.36 26.872 42.216 26.872C44.0933 26.872 45.672 26.1787 46.952 24.792C48.232 23.384 48.872 21.688 48.872 19.704Z" fill="#734AE7"/>
<path d="M55.432 29.624H56.432V28.624H55.432V29.624ZM55.432 31V32H56.432V31H55.432ZM29 31H28V32H29V31ZM29 29.624V28.624H28V29.624H29ZM36.136 29.624V30.624H39.8916L36.6333 28.7564L36.136 29.624ZM31.976 25.496L31.1084 25.9933L31.113 26.0012L31.976 25.496ZM33.864 11.448L34.5609 12.1652L34.5643 12.1618L33.864 11.448ZM50.568 11.448L49.8677 12.1618L49.8711 12.1652L50.568 11.448ZM52.424 25.496L53.287 26.0012L53.287 26.0012L52.424 25.496ZM48.296 29.624L47.7941 28.7591L44.5801 30.624H48.296V29.624ZM46.952 14.584L46.2121 15.2567L46.2121 15.2567L46.952 14.584ZM37.512 14.584L38.2519 15.2567L38.2519 15.2567L37.512 14.584ZM37.512 24.792L36.772 25.4647L36.7772 25.4703L37.512 24.792ZM46.952 24.792L47.6868 25.4703L47.6919 25.4647L46.952 24.792ZM54.432 29.624V31H56.432V29.624H54.432ZM55.432 30H29V32H55.432V30ZM30 31V29.624H28V31H30ZM29 30.624H36.136V28.624H29V30.624ZM36.6333 28.7564C35.0362 27.841 33.7753 26.5903 32.839 24.9908L31.113 26.0012C32.2247 27.9003 33.7371 29.4016 35.6387 30.4916L36.6333 28.7564ZM32.8436 24.9987C31.9328 23.4096 31.472 21.6414 31.472 19.672H29.472C29.472 21.9693 30.0139 24.0837 31.1084 25.9933L32.8436 24.9987ZM31.472 19.672C31.472 16.6442 32.5023 14.1656 34.5609 12.1652L33.1671 10.7308C30.7031 13.1251 29.472 16.1292 29.472 19.672H31.472ZM34.5643 12.1618C36.6298 10.1353 39.1585 9.12 42.216 9.12V7.12C38.6602 7.12 35.6209 8.32336 33.1637 10.7342L34.5643 12.1618ZM42.216 9.12C45.2735 9.12 47.8022 10.1353 49.8677 12.1618L51.2683 10.7342C48.8111 8.32336 45.7718 7.12 42.216 7.12V9.12ZM49.8711 12.1652C51.9298 14.1656 52.96 16.6442 52.96 19.672H54.96C54.96 16.1292 53.7289 13.1251 51.2649 10.7308L49.8711 12.1652ZM52.96 19.672C52.96 21.6375 52.4905 23.4029 51.561 24.9908L53.287 26.0012C54.4055 24.0904 54.96 21.9732 54.96 19.672H52.96ZM51.561 24.9908C50.6229 26.5933 49.3704 27.8444 47.7941 28.7591L48.7979 30.4889C50.6776 29.3982 52.1771 27.8973 53.287 26.0012L51.561 24.9908ZM48.296 30.624H55.432V28.624H48.296V30.624ZM49.872 19.704C49.872 17.4646 49.1489 15.514 47.6919 13.9113L46.2121 15.2567C47.3151 16.47 47.872 17.9328 47.872 19.704H49.872ZM47.6919 13.9113C46.2254 12.2981 44.3794 11.472 42.216 11.472V13.472C43.8072 13.472 45.1186 14.0539 46.2121 15.2567L47.6919 13.9113ZM42.216 11.472C40.0703 11.472 38.2361 12.3008 36.7721 13.9113L38.2519 15.2567C39.3479 14.0512 40.6497 13.472 42.216 13.472V11.472ZM36.7721 13.9113C35.3151 15.514 34.592 17.4646 34.592 19.704H36.592C36.592 17.9328 37.1489 16.47 38.2519 15.2567L36.7721 13.9113ZM34.592 19.704C34.592 21.9251 35.317 23.8642 36.7721 25.4647L38.2519 24.1193C37.147 22.9038 36.592 21.4509 36.592 19.704H34.592ZM36.7772 25.4703C38.2429 27.0581 40.0756 27.872 42.216 27.872V25.872C40.6444 25.872 39.3411 25.2992 38.2468 24.1137L36.7772 25.4703ZM42.216 27.872C44.3741 27.872 46.2186 27.0608 47.6868 25.4703L46.2172 24.1137C45.1254 25.2965 43.8126 25.872 42.216 25.872V27.872ZM47.6919 25.4647C49.147 23.8642 49.872 21.9251 49.872 19.704H47.872C47.872 21.4509 47.317 22.9038 46.2121 24.1193L47.6919 25.4647Z" fill="#FFFDFD" mask="url(#path-13-outside-7_238_3806)"/>
</g>
<g filter="url(#filter7_d_238_3806)">
<mask id="path-15-outside-8_238_3806" maskUnits="userSpaceOnUse" x="5" y="13" width="27" height="19" fill="black">
<rect fill="white" x="5" y="13" width="27" height="19"/>
<path d="M24.088 20.44L19.552 29.608H17.32L12.808 20.44V31H6.736V29.968H9.064V14.224H14.128L18.448 23.44L22.792 14.224H27.832V29.968H30.16V31H24.088V20.44Z"/>
</mask>
<path d="M24.088 20.44L19.552 29.608H17.32L12.808 20.44V31H6.736V29.968H9.064V14.224H14.128L18.448 23.44L22.792 14.224H27.832V29.968H30.16V31H24.088V20.44Z" fill="#734AE7"/>
<path d="M24.088 20.44H25.088L23.1917 19.9965L24.088 20.44ZM19.552 29.608V30.608H20.1729L20.4483 30.0515L19.552 29.608ZM17.32 29.608L16.4228 30.0496L16.6976 30.608H17.32V29.608ZM12.808 20.44L13.7052 19.9984L11.808 20.44H12.808ZM12.808 31V32H13.808V31H12.808ZM6.736 31H5.736V32H6.736V31ZM6.736 29.968V28.968H5.736V29.968H6.736ZM9.064 29.968V30.968H10.064V29.968H9.064ZM9.064 14.224V13.224H8.064V14.224H9.064ZM14.128 14.224L15.0335 13.7996L14.7637 13.224H14.128V14.224ZM18.448 23.44L17.5425 23.8644L18.4455 25.7907L19.3526 23.8664L18.448 23.44ZM22.792 14.224V13.224H22.1578L21.8874 13.7976L22.792 14.224ZM27.832 14.224H28.832V13.224H27.832V14.224ZM27.832 29.968H26.832V30.968H27.832V29.968ZM30.16 29.968H31.16V28.968H30.16V29.968ZM30.16 31V32H31.16V31H30.16ZM24.088 31H23.088V32H24.088V31ZM23.1917 19.9965L18.6557 29.1645L20.4483 30.0515L24.9843 20.8835L23.1917 19.9965ZM19.552 28.608H17.32V30.608H19.552V28.608ZM18.2172 29.1664L13.7052 19.9984L11.9108 20.8816L16.4228 30.0496L18.2172 29.1664ZM11.808 20.44V31H13.808V20.44H11.808ZM12.808 30H6.736V32H12.808V30ZM7.736 31V29.968H5.736V31H7.736ZM6.736 30.968H9.064V28.968H6.736V30.968ZM10.064 29.968V14.224H8.064V29.968H10.064ZM9.064 15.224H14.128V13.224H9.064V15.224ZM13.2225 14.6484L17.5425 23.8644L19.3535 23.0156L15.0335 13.7996L13.2225 14.6484ZM19.3526 23.8664L23.6966 14.6504L21.8874 13.7976L17.5434 23.0136L19.3526 23.8664ZM22.792 15.224H27.832V13.224H22.792V15.224ZM26.832 14.224V29.968H28.832V14.224H26.832ZM27.832 30.968H30.16V28.968H27.832V30.968ZM29.16 29.968V31H31.16V29.968H29.16ZM30.16 30H24.088V32H30.16V30ZM25.088 31V20.44H23.088V31H25.088Z" fill="#FFFDFD" mask="url(#path-15-outside-8_238_3806)"/>
</g>
<defs>
<filter id="filter0_d_238_3806" x="93.7344" y="2.63281" width="50.3672" height="42.3672" filterUnits="userSpaceOnUse" color-interpolation-filters="sRGB">
<feFlood flood-opacity="0" result="BackgroundImageFix"/>
<feColorMatrix in="SourceAlpha" type="matrix" values="0 0 0 0 0 0 0 0 0 0 0 0 0 0 0 0 0 0 127 0" result="hardAlpha"/>
<feOffset dx="4" dy="4"/>
<feGaussianBlur stdDeviation="5"/>
<feComposite in2="hardAlpha" operator="out"/>
<feColorMatrix type="matrix" values="0 0 0 0 0 0 0 0 0 0 0 0 0 0 0 0 0 0 0.25 0"/>
<feBlend mode="normal" in2="BackgroundImageFix" result="effect1_dropShadow_238_3806"/>
<feBlend mode="normal" in="SourceGraphic" in2="effect1_dropShadow_238_3806" result="shape"/>
</filter>
<filter id="filter1_d_238_3806" x="123.734" y="8.22656" width="36.5156" height="36.7734" filterUnits="userSpaceOnUse" color-interpolation-filters="sRGB">
<feFlood flood-opacity="0" result="BackgroundImageFix"/>
<feColorMatrix in="SourceAlpha" type="matrix" values="0 0 0 0 0 0 0 0 0 0 0 0 0 0 0 0 0 0 127 0" result="hardAlpha"/>
<feOffset dx="4" dy="4"/>
<feGaussianBlur stdDeviation="5"/>
<feComposite in2="hardAlpha" operator="out"/>
<feColorMatrix type="matrix" values="0 0 0 0 0 0 0 0 0 0 0 0 0 0 0 0 0 0 0.25 0"/>
<feBlend mode="normal" in2="BackgroundImageFix" result="effect1_dropShadow_238_3806"/>
<feBlend mode="normal" in="SourceGraphic" in2="effect1_dropShadow_238_3806" result="shape"/>
</filter>
<filter id="filter2_d_238_3806" x="140.734" y="8.22656" width="36.5156" height="36.7734" filterUnits="userSpaceOnUse" color-interpolation-filters="sRGB">
<feFlood flood-opacity="0" result="BackgroundImageFix"/>
<feColorMatrix in="SourceAlpha" type="matrix" values="0 0 0 0 0 0 0 0 0 0 0 0 0 0 0 0 0 0 127 0" result="hardAlpha"/>
<feOffset dx="4" dy="4"/>
<feGaussianBlur stdDeviation="5"/>
<feComposite in2="hardAlpha" operator="out"/>
<feColorMatrix type="matrix" values="0 0 0 0 0 0 0 0 0 0 0 0 0 0 0 0 0 0 0.25 0"/>
<feBlend mode="normal" in2="BackgroundImageFix" result="effect1_dropShadow_238_3806"/>
<feBlend mode="normal" in="SourceGraphic" in2="effect1_dropShadow_238_3806" result="shape"/>
</filter>
<filter id="filter3_d_238_3806" x="48.9297" y="8.22656" width="36.6562" height="36.7734" filterUnits="userSpaceOnUse" color-interpolation-filters="sRGB">
<feFlood flood-opacity="0" result="BackgroundImageFix"/>
<feColorMatrix in="SourceAlpha" type="matrix" values="0 0 0 0 0 0 0 0 0 0 0 0 0 0 0 0 0 0 127 0" result="hardAlpha"/>
<feOffset dx="4" dy="4"/>
<feGaussianBlur stdDeviation="5"/>
<feComposite in2="hardAlpha" operator="out"/>
<feColorMatrix type="matrix" values="0 0 0 0 0 0 0 0 0 0 0 0 0 0 0 0 0 0 0.25 0"/>
<feBlend mode="normal" in2="BackgroundImageFix" result="effect1_dropShadow_238_3806"/>
<feBlend mode="normal" in="SourceGraphic" in2="effect1_dropShadow_238_3806" result="shape"/>
</filter>
<filter id="filter4_d_238_3806" x="66" y="2.63281" width="30.4922" height="42.3672" filterUnits="userSpaceOnUse" color-interpolation-filters="sRGB">
<feFlood flood-opacity="0" result="BackgroundImageFix"/>
<feColorMatrix in="SourceAlpha" type="matrix" values="0 0 0 0 0 0 0 0 0 0 0 0 0 0 0 0 0 0 127 0" result="hardAlpha"/>
<feOffset dx="4" dy="4"/>
<feGaussianBlur stdDeviation="5"/>
<feComposite in2="hardAlpha" operator="out"/>
<feColorMatrix type="matrix" values="0 0 0 0 0 0 0 0 0 0 0 0 0 0 0 0 0 0 0.25 0"/>
<feBlend mode="normal" in2="BackgroundImageFix" result="effect1_dropShadow_238_3806"/>
<feBlend mode="normal" in="SourceGraphic" in2="effect1_dropShadow_238_3806" result="shape"/>
</filter>
<filter id="filter5_d_238_3806" x="78.7344" y="8.22656" width="37.0156" height="36.7734" filterUnits="userSpaceOnUse" color-interpolation-filters="sRGB">
<feFlood flood-opacity="0" result="BackgroundImageFix"/>
<feColorMatrix in="SourceAlpha" type="matrix" values="0 0 0 0 0 0 0 0 0 0 0 0 0 0 0 0 0 0 127 0" result="hardAlpha"/>
<feOffset dx="4" dy="4"/>
<feGaussianBlur stdDeviation="5"/>
<feComposite in2="hardAlpha" operator="out"/>
<feColorMatrix type="matrix" values="0 0 0 0 0 0 0 0 0 0 0 0 0 0 0 0 0 0 0.25 0"/>
<feBlend mode="normal" in2="BackgroundImageFix" result="effect1_dropShadow_238_3806"/>
<feBlend mode="normal" in="SourceGraphic" in2="effect1_dropShadow_238_3806" result="shape"/>
</filter>
<filter id="filter6_d_238_3806" x="23" y="2.11719" width="46.4297" height="42.8828" filterUnits="userSpaceOnUse" color-interpolation-filters="sRGB">
<feFlood flood-opacity="0" result="BackgroundImageFix"/>
<feColorMatrix in="SourceAlpha" type="matrix" values="0 0 0 0 0 0 0 0 0 0 0 0 0 0 0 0 0 0 127 0" result="hardAlpha"/>
<feOffset dx="4" dy="4"/>
<feGaussianBlur stdDeviation="5"/>
<feComposite in2="hardAlpha" operator="out"/>
<feColorMatrix type="matrix" values="0 0 0 0 0 0 0 0 0 0 0 0 0 0 0 0 0 0 0.25 0"/>
<feBlend mode="normal" in2="BackgroundImageFix" result="effect1_dropShadow_238_3806"/>
<feBlend mode="normal" in="SourceGraphic" in2="effect1_dropShadow_238_3806" result="shape"/>
</filter>
<filter id="filter7_d_238_3806" x="0.734375" y="8.22656" width="43.4219" height="36.7734" filterUnits="userSpaceOnUse" color-interpolation-filters="sRGB">
<feFlood flood-opacity="0" result="BackgroundImageFix"/>
<feColorMatrix in="SourceAlpha" type="matrix" values="0 0 0 0 0 0 0 0 0 0 0 0 0 0 0 0 0 0 127 0" result="hardAlpha"/>
<feOffset dx="4" dy="4"/>
<feGaussianBlur stdDeviation="5"/>
<feComposite in2="hardAlpha" operator="out"/>
<feColorMatrix type="matrix" values="0 0 0 0 0 0 0 0 0 0 0 0 0 0 0 0 0 0 0.25 0"/>
<feBlend mode="normal" in2="BackgroundImageFix" result="effect1_dropShadow_238_3806"/>
<feBlend mode="normal" in="SourceGraphic" in2="effect1_dropShadow_238_3806" result="shape"/>
</filter>
</defs>
</svg>
