<svg width="161" height="38" viewBox="0 0 161 38" fill="none" xmlns="http://www.w3.org/2000/svg">
<g filter="url(#filter0_d_237_3789)">
<mask id="path-1-outside-1_237_3789" maskUnits="userSpaceOnUse" x="8" y="-2" width="145" height="22" fill="black">
<rect fill="white" x="8" y="-2" width="145" height="22"/>
<path d="M28.088 7.44L23.552 16.608H21.32L16.808 7.44V18H10.736V16.968H13.064V1.224H18.128L22.448 10.44L26.792 1.224H31.832V16.968H34.16V18H28.088V7.44ZM53.7224 16.968V18H33.8984V16.968H39.2504C37.9384 16.216 36.8984 15.184 36.1304 13.872C35.3784 12.56 35.0024 11.104 35.0024 9.504C35.0024 7.04 35.8504 4.984 37.5464 3.336C39.2424 1.672 41.3304 0.839999 43.8104 0.839999C46.2904 0.839999 48.3784 1.672 50.0744 3.336C51.7704 4.984 52.6184 7.04 52.6184 9.504C52.6184 11.104 52.2344 12.56 51.4664 13.872C50.6984 15.184 49.6664 16.216 48.3704 16.968H53.7224ZM48.8024 9.528C48.8024 8.024 48.3224 6.744 47.3624 5.688C46.4024 4.632 45.2184 4.104 43.8104 4.104C42.4184 4.104 41.2424 4.632 40.2824 5.688C39.3224 6.744 38.8424 8.024 38.8424 9.528C38.8424 11.016 39.3224 12.288 40.2824 13.344C41.2424 14.384 42.4184 14.904 43.8104 14.904C45.2184 14.904 46.4024 14.384 47.3624 13.344C48.3224 12.288 48.8024 11.016 48.8024 9.528ZM69.8636 16.968V18H53.3516V16.968H59.5916L53.2796 1.224H57.3356L61.6076 11.904L65.8796 1.224H69.9356L63.5996 16.968H69.8636ZM77.747 16.968V18H69.875V16.968H71.939V1.224H75.683V16.968H77.747ZM79.814 16.968V1.224H91.91V4.56H83.558V8.016H91.07V11.208H83.558V14.688H92.174V16.968H94.502V18H77.486V16.968H79.814ZM99.7891 16.968V18H93.4531V16.968H99.7891ZM120.109 16.968V18H113.797L112.237 14.376H105.205L103.645 18H97.3332V16.968H100.093L106.909 1.224H110.533L117.325 16.968H120.109ZM108.733 6.216L106.621 11.088H110.821L108.733 6.216ZM133.912 16.968V18H117.4V16.968H119.728V1.224H125.656C128.232 1.224 130.104 1.728 131.272 2.736C132.456 3.728 133.048 5.264 133.048 7.344C133.048 9.408 132.44 10.92 131.224 11.88C130.024 12.84 128.184 13.32 125.704 13.32H123.472V16.968H133.912ZM125.992 10.08C127.24 10.08 128.088 9.832 128.536 9.336C128.984 8.824 129.208 8.088 129.208 7.128C129.208 6.152 128.912 5.464 128.32 5.064C127.744 4.648 126.84 4.44 125.608 4.44H123.472V10.08H125.992ZM150.154 16.968V18H133.642V16.968H135.97V1.224H141.898C144.474 1.224 146.346 1.728 147.514 2.736C148.698 3.728 149.29 5.264 149.29 7.344C149.29 9.408 148.682 10.92 147.466 11.88C146.266 12.84 144.426 13.32 141.946 13.32H139.714V16.968H150.154ZM142.234 10.08C143.482 10.08 144.33 9.832 144.778 9.336C145.226 8.824 145.45 8.088 145.45 7.128C145.45 6.152 145.154 5.464 144.562 5.064C143.986 4.648 143.082 4.44 141.85 4.44H139.714V10.08H142.234Z"/>
</mask>
<path d="M28.088 7.44L23.552 16.608H21.32L16.808 7.44V18H10.736V16.968H13.064V1.224H18.128L22.448 10.44L26.792 1.224H31.832V16.968H34.16V18H28.088V7.44ZM53.7224 16.968V18H33.8984V16.968H39.2504C37.9384 16.216 36.8984 15.184 36.1304 13.872C35.3784 12.56 35.0024 11.104 35.0024 9.504C35.0024 7.04 35.8504 4.984 37.5464 3.336C39.2424 1.672 41.3304 0.839999 43.8104 0.839999C46.2904 0.839999 48.3784 1.672 50.0744 3.336C51.7704 4.984 52.6184 7.04 52.6184 9.504C52.6184 11.104 52.2344 12.56 51.4664 13.872C50.6984 15.184 49.6664 16.216 48.3704 16.968H53.7224ZM48.8024 9.528C48.8024 8.024 48.3224 6.744 47.3624 5.688C46.4024 4.632 45.2184 4.104 43.8104 4.104C42.4184 4.104 41.2424 4.632 40.2824 5.688C39.3224 6.744 38.8424 8.024 38.8424 9.528C38.8424 11.016 39.3224 12.288 40.2824 13.344C41.2424 14.384 42.4184 14.904 43.8104 14.904C45.2184 14.904 46.4024 14.384 47.3624 13.344C48.3224 12.288 48.8024 11.016 48.8024 9.528ZM69.8636 16.968V18H53.3516V16.968H59.5916L53.2796 1.224H57.3356L61.6076 11.904L65.8796 1.224H69.9356L63.5996 16.968H69.8636ZM77.747 16.968V18H69.875V16.968H71.939V1.224H75.683V16.968H77.747ZM79.814 16.968V1.224H91.91V4.56H83.558V8.016H91.07V11.208H83.558V14.688H92.174V16.968H94.502V18H77.486V16.968H79.814ZM99.7891 16.968V18H93.4531V16.968H99.7891ZM120.109 16.968V18H113.797L112.237 14.376H105.205L103.645 18H97.3332V16.968H100.093L106.909 1.224H110.533L117.325 16.968H120.109ZM108.733 6.216L106.621 11.088H110.821L108.733 6.216ZM133.912 16.968V18H117.4V16.968H119.728V1.224H125.656C128.232 1.224 130.104 1.728 131.272 2.736C132.456 3.728 133.048 5.264 133.048 7.344C133.048 9.408 132.44 10.92 131.224 11.88C130.024 12.84 128.184 13.32 125.704 13.32H123.472V16.968H133.912ZM125.992 10.08C127.24 10.08 128.088 9.832 128.536 9.336C128.984 8.824 129.208 8.088 129.208 7.128C129.208 6.152 128.912 5.464 128.32 5.064C127.744 4.648 126.84 4.44 125.608 4.44H123.472V10.08H125.992ZM150.154 16.968V18H133.642V16.968H135.97V1.224H141.898C144.474 1.224 146.346 1.728 147.514 2.736C148.698 3.728 149.29 5.264 149.29 7.344C149.29 9.408 148.682 10.92 147.466 11.88C146.266 12.84 144.426 13.32 141.946 13.32H139.714V16.968H150.154ZM142.234 10.08C143.482 10.08 144.33 9.832 144.778 9.336C145.226 8.824 145.45 8.088 145.45 7.128C145.45 6.152 145.154 5.464 144.562 5.064C143.986 4.648 143.082 4.44 141.85 4.44H139.714V10.08H142.234Z" fill="#A073FF"/>
<path d="M28.088 7.44H30.088L26.2954 6.55309L28.088 7.44ZM23.552 16.608V18.608H24.7939L25.3446 17.4949L23.552 16.608ZM21.32 16.608L19.5255 17.4911L20.0752 18.608H21.32V16.608ZM16.808 7.44L18.6025 6.55686L14.808 7.44H16.808ZM16.808 18V20H18.808V18H16.808ZM10.736 18H8.736V20H10.736V18ZM10.736 16.968V14.968H8.736V16.968H10.736ZM13.064 16.968V18.968H15.064V16.968H13.064ZM13.064 1.224V-0.776001H11.064V1.224H13.064ZM18.128 1.224L19.9389 0.375131L19.3993 -0.776001H18.128V1.224ZM22.448 10.44L20.6371 11.2889L22.443 15.1415L24.2571 11.2927L22.448 10.44ZM26.792 1.224V-0.776001H25.5237L24.9829 0.37127L26.792 1.224ZM31.832 1.224H33.832V-0.776001H31.832V1.224ZM31.832 16.968H29.832V18.968H31.832V16.968ZM34.16 16.968H36.16V14.968H34.16V16.968ZM34.16 18V20H36.16V18H34.16ZM28.088 18H26.088V20H28.088V18ZM26.2954 6.55309L21.7594 15.7211L25.3446 17.4949L29.8806 8.32691L26.2954 6.55309ZM23.552 14.608H21.32V18.608H23.552V14.608ZM23.1145 15.7249L18.6025 6.55686L15.0135 8.32313L19.5255 17.4911L23.1145 15.7249ZM14.808 7.44V18H18.808V7.44H14.808ZM16.808 16H10.736V20H16.808V16ZM12.736 18V16.968H8.736V18H12.736ZM10.736 18.968H13.064V14.968H10.736V18.968ZM15.064 16.968V1.224H11.064V16.968H15.064ZM13.064 3.224H18.128V-0.776001H13.064V3.224ZM16.3171 2.07287L20.6371 11.2889L24.2589 9.59113L19.9389 0.375131L16.3171 2.07287ZM24.2571 11.2927L28.6011 2.07673L24.9829 0.37127L20.6389 9.58727L24.2571 11.2927ZM26.792 3.224H31.832V-0.776001H26.792V3.224ZM29.832 1.224V16.968H33.832V1.224H29.832ZM31.832 18.968H34.16V14.968H31.832V18.968ZM32.16 16.968V18H36.16V16.968H32.16ZM34.16 16H28.088V20H34.16V16ZM30.088 18V7.44H26.088V18H30.088ZM53.7224 16.968H55.7224V14.968H53.7224V16.968ZM53.7224 18V20H55.7224V18H53.7224ZM33.8984 18H31.8984V20H33.8984V18ZM33.8984 16.968V14.968H31.8984V16.968H33.8984ZM39.2504 16.968V18.968H46.7617L40.245 15.2328L39.2504 16.968ZM36.1304 13.872L34.3953 14.8666L34.3998 14.8745L34.4044 14.8824L36.1304 13.872ZM37.5464 3.336L38.9402 4.77038L38.9471 4.76362L37.5464 3.336ZM50.0744 3.336L48.6737 4.76363L48.6807 4.77037L50.0744 3.336ZM51.4664 13.872L53.1925 14.8824L53.1925 14.8824L51.4664 13.872ZM48.3704 16.968L47.3667 15.2381L40.9386 18.968H48.3704V16.968ZM47.3624 5.688L45.8826 7.03334L45.8826 7.03335L47.3624 5.688ZM40.2824 5.688L41.7623 7.03335L41.7623 7.03334L40.2824 5.688ZM40.2824 13.344L38.8026 14.6893L38.8077 14.695L38.8128 14.7006L40.2824 13.344ZM47.3624 13.344L48.832 14.7006L48.8372 14.695L48.8423 14.6893L47.3624 13.344ZM51.7224 16.968V18H55.7224V16.968H51.7224ZM53.7224 16H33.8984V20H53.7224V16ZM35.8984 18V16.968H31.8984V18H35.8984ZM33.8984 18.968H39.2504V14.968H33.8984V18.968ZM40.245 15.2328C39.2376 14.6554 38.4491 13.874 37.8565 12.8616L34.4044 14.8824C35.3478 16.494 36.6393 17.7766 38.2559 18.7032L40.245 15.2328ZM37.8656 12.8774C37.2973 11.8859 37.0024 10.7761 37.0024 9.504H33.0024C33.0024 11.4319 33.4596 13.2341 34.3953 14.8666L37.8656 12.8774ZM37.0024 9.504C37.0024 7.555 37.6496 6.02444 38.9402 4.77037L36.1527 1.90163C34.0513 3.94356 33.0024 6.525 33.0024 9.504H37.0024ZM38.9471 4.76362C40.2514 3.48395 41.8288 2.84 43.8104 2.84V-1.16C40.8321 -1.16 38.2335 -0.139951 36.1458 1.90838L38.9471 4.76362ZM43.8104 2.84C45.7921 2.84 47.3695 3.48395 48.6738 4.76362L51.4751 1.90838C49.3874 -0.139951 46.7888 -1.16 43.8104 -1.16V2.84ZM48.6807 4.77037C49.9713 6.02444 50.6184 7.555 50.6184 9.504H54.6184C54.6184 6.525 53.5696 3.94356 51.4682 1.90163L48.6807 4.77037ZM50.6184 9.504C50.6184 10.7683 50.3195 11.8724 49.7404 12.8616L53.1925 14.8824C54.1494 13.2476 54.6184 11.4397 54.6184 9.504H50.6184ZM49.7404 12.8616C49.1443 13.88 48.3593 14.6622 47.3667 15.2381L49.3742 18.6979C50.9736 17.7698 52.2526 16.488 53.1925 14.8824L49.7404 12.8616ZM48.3704 18.968H53.7224V14.968H48.3704V18.968ZM50.8024 9.528C50.8024 7.55583 50.1562 5.78796 48.8423 4.34265L45.8826 7.03335C46.4886 7.70004 46.8024 8.49217 46.8024 9.528H50.8024ZM48.8423 4.34265C47.5092 2.87617 45.7906 2.104 43.8104 2.104V6.104C44.6463 6.104 45.2957 6.38783 45.8826 7.03334L48.8423 4.34265ZM43.8104 2.104C41.839 2.104 40.1307 2.88168 38.8026 4.34265L41.7623 7.03334C42.3542 6.38232 42.9979 6.104 43.8104 6.104V2.104ZM38.8026 4.34265C37.4886 5.78796 36.8424 7.55583 36.8424 9.528H40.8424C40.8424 8.49217 41.1562 7.70004 41.7623 7.03335L38.8026 4.34265ZM36.8424 9.528C36.8424 11.4902 37.4925 13.2483 38.8026 14.6893L41.7623 11.9987C41.1524 11.3277 40.8424 10.5418 40.8424 9.528H36.8424ZM38.8128 14.7006C40.1442 16.1429 41.8497 16.904 43.8104 16.904V12.904C42.9872 12.904 42.3406 12.6251 41.752 11.9874L38.8128 14.7006ZM43.8104 16.904C45.7799 16.904 47.4957 16.1483 48.832 14.7006L45.8928 11.9874C45.3092 12.6197 44.6569 12.904 43.8104 12.904V16.904ZM48.8423 14.6893C50.1524 13.2483 50.8024 11.4902 50.8024 9.528H46.8024C46.8024 10.5418 46.4925 11.3277 45.8826 11.9987L48.8423 14.6893ZM69.8636 16.968H71.8636V14.968H69.8636V16.968ZM69.8636 18V20H71.8636V18H69.8636ZM53.3516 18H51.3516V20H53.3516V18ZM53.3516 16.968V14.968H51.3516V16.968H53.3516ZM59.5916 16.968V18.968H62.5481L61.4479 16.2238L59.5916 16.968ZM53.2796 1.224V-0.776001H50.323L51.4232 1.96824L53.2796 1.224ZM57.3356 1.224L59.1925 0.481217L58.6896 -0.776001H57.3356V1.224ZM61.6076 11.904L59.7506 12.6468L61.6076 17.2892L63.4645 12.6468L61.6076 11.904ZM65.8796 1.224V-0.776001H64.5255L64.0226 0.481217L65.8796 1.224ZM69.9356 1.224L71.791 1.97068L72.8963 -0.776001H69.9356V1.224ZM63.5996 16.968L61.7442 16.2213L60.6388 18.968H63.5996V16.968ZM67.8636 16.968V18H71.8636V16.968H67.8636ZM69.8636 16H53.3516V20H69.8636V16ZM55.3516 18V16.968H51.3516V18H55.3516ZM53.3516 18.968H59.5916V14.968H53.3516V18.968ZM61.4479 16.2238L55.1359 0.479754L51.4232 1.96824L57.7352 17.7122L61.4479 16.2238ZM53.2796 3.224H57.3356V-0.776001H53.2796V3.224ZM55.4786 1.96678L59.7506 12.6468L63.4645 11.1612L59.1925 0.481217L55.4786 1.96678ZM63.4645 12.6468L67.7365 1.96678L64.0226 0.481217L59.7506 11.1612L63.4645 12.6468ZM65.8796 3.224H69.9356V-0.776001H65.8796V3.224ZM68.0802 0.477318L61.7442 16.2213L65.455 17.7147L71.791 1.97068L68.0802 0.477318ZM63.5996 18.968H69.8636V14.968H63.5996V18.968ZM77.747 16.968H79.747V14.968H77.747V16.968ZM77.747 18V20H79.747V18H77.747ZM69.875 18H67.875V20H69.875V18ZM69.875 16.968V14.968H67.875V16.968H69.875ZM71.939 16.968V18.968H73.939V16.968H71.939ZM71.939 1.224V-0.776001H69.939V1.224H71.939ZM75.683 1.224H77.683V-0.776001H75.683V1.224ZM75.683 16.968H73.683V18.968H75.683V16.968ZM75.747 16.968V18H79.747V16.968H75.747ZM77.747 16H69.875V20H77.747V16ZM71.875 18V16.968H67.875V18H71.875ZM69.875 18.968H71.939V14.968H69.875V18.968ZM73.939 16.968V1.224H69.939V16.968H73.939ZM71.939 3.224H75.683V-0.776001H71.939V3.224ZM73.683 1.224V16.968H77.683V1.224H73.683ZM75.683 18.968H77.747V14.968H75.683V18.968ZM79.814 16.968V18.968H81.814V16.968H79.814ZM79.814 1.224V-0.776001H77.814V1.224H79.814ZM91.91 1.224H93.91V-0.776001H91.91V1.224ZM91.91 4.56V6.56H93.91V4.56H91.91ZM83.558 4.56V2.56H81.558V4.56H83.558ZM83.558 8.016H81.558V10.016H83.558V8.016ZM91.07 8.016H93.07V6.016H91.07V8.016ZM91.07 11.208V13.208H93.07V11.208H91.07ZM83.558 11.208V9.208H81.558V11.208H83.558ZM83.558 14.688H81.558V16.688H83.558V14.688ZM92.174 14.688H94.174V12.688H92.174V14.688ZM92.174 16.968H90.174V18.968H92.174V16.968ZM94.502 16.968H96.502V14.968H94.502V16.968ZM94.502 18V20H96.502V18H94.502ZM77.486 18H75.486V20H77.486V18ZM77.486 16.968V14.968H75.486V16.968H77.486ZM81.814 16.968V1.224H77.814V16.968H81.814ZM79.814 3.224H91.91V-0.776001H79.814V3.224ZM89.91 1.224V4.56H93.91V1.224H89.91ZM91.91 2.56H83.558V6.56H91.91V2.56ZM81.558 4.56V8.016H85.558V4.56H81.558ZM83.558 10.016H91.07V6.016H83.558V10.016ZM89.07 8.016V11.208H93.07V8.016H89.07ZM91.07 9.208H83.558V13.208H91.07V9.208ZM81.558 11.208V14.688H85.558V11.208H81.558ZM83.558 16.688H92.174V12.688H83.558V16.688ZM90.174 14.688V16.968H94.174V14.688H90.174ZM92.174 18.968H94.502V14.968H92.174V18.968ZM92.502 16.968V18H96.502V16.968H92.502ZM94.502 16H77.486V20H94.502V16ZM79.486 18V16.968H75.486V18H79.486ZM77.486 18.968H79.814V14.968H77.486V18.968ZM99.7891 16.968H101.789V14.968H99.7891V16.968ZM99.7891 18V20H101.789V18H99.7891ZM93.4531 18H91.4531V20H93.4531V18ZM93.4531 16.968V14.968H91.4531V16.968H93.4531ZM97.7891 16.968V18H101.789V16.968H97.7891ZM99.7891 16H93.4531V20H99.7891V16ZM95.4531 18V16.968H91.4531V18H95.4531ZM93.4531 18.968H99.7891V14.968H93.4531V18.968ZM120.109 16.968H122.109V14.968H120.109V16.968ZM120.109 18V20H122.109V18H120.109ZM113.797 18L111.96 18.7908L112.481 20H113.797V18ZM112.237 14.376L114.074 13.5852L113.554 12.376H112.237V14.376ZM105.205 14.376V12.376H103.889L103.368 13.5852L105.205 14.376ZM103.645 18V20H104.962L105.482 18.7908L103.645 18ZM97.3332 18H95.3332V20H97.3332V18ZM97.3332 16.968V14.968H95.3332V16.968H97.3332ZM100.093 16.968V18.968H101.407L101.929 17.7626L100.093 16.968ZM106.909 1.224V-0.776001H105.596L105.074 0.429412L106.909 1.224ZM110.533 1.224L112.37 0.43177L111.849 -0.776001H110.533V1.224ZM117.325 16.968L115.489 17.7602L116.01 18.968H117.325V16.968ZM108.733 6.216L110.572 5.42816L108.744 1.16331L106.898 5.42053L108.733 6.216ZM106.621 11.088L104.786 10.2925L103.574 13.088H106.621V11.088ZM110.821 11.088V13.088H113.854L112.66 10.3002L110.821 11.088ZM118.109 16.968V18H122.109V16.968H118.109ZM120.109 16H113.797V20H120.109V16ZM115.634 17.2092L114.074 13.5852L110.4 15.1668L111.96 18.7908L115.634 17.2092ZM112.237 12.376H105.205V16.376H112.237V12.376ZM103.368 13.5852L101.808 17.2092L105.482 18.7908L107.042 15.1668L103.368 13.5852ZM103.645 16H97.3332V20H103.645V16ZM99.3332 18V16.968H95.3332V18H99.3332ZM97.3332 18.968H100.093V14.968H97.3332V18.968ZM101.929 17.7626L108.745 2.01859L105.074 0.429412L98.2579 16.1734L101.929 17.7626ZM106.909 3.224H110.533V-0.776001H106.909V3.224ZM108.697 2.01623L115.489 17.7602L119.162 16.1758L112.37 0.43177L108.697 2.01623ZM117.325 18.968H120.109V14.968H117.325V18.968ZM106.898 5.42053L104.786 10.2925L108.456 11.8835L110.568 7.01147L106.898 5.42053ZM106.621 13.088H110.821V9.088H106.621V13.088ZM112.66 10.3002L110.572 5.42816L106.895 7.00384L108.983 11.8758L112.66 10.3002ZM133.912 16.968H135.912V14.968H133.912V16.968ZM133.912 18V20H135.912V18H133.912ZM117.4 18H115.4V20H117.4V18ZM117.4 16.968V14.968H115.4V16.968H117.4ZM119.728 16.968V18.968H121.728V16.968H119.728ZM119.728 1.224V-0.776001H117.728V1.224H119.728ZM131.272 2.736L129.965 4.25011L129.976 4.25966L129.988 4.26904L131.272 2.736ZM131.224 11.88L129.985 10.3102L129.975 10.3183L131.224 11.88ZM123.472 13.32V11.32H121.472V13.32H123.472ZM123.472 16.968H121.472V18.968H123.472V16.968ZM128.536 9.336L130.02 10.6766L130.031 10.6649L130.041 10.653L128.536 9.336ZM128.32 5.064L127.149 6.68536L127.174 6.70367L127.2 6.72118L128.32 5.064ZM123.472 4.44V2.44H121.472V4.44H123.472ZM123.472 10.08H121.472V12.08H123.472V10.08ZM131.912 16.968V18H135.912V16.968H131.912ZM133.912 16H117.4V20H133.912V16ZM119.4 18V16.968H115.4V18H119.4ZM117.4 18.968H119.728V14.968H117.4V18.968ZM121.728 16.968V1.224H117.728V16.968H121.728ZM119.728 3.224H125.656V-0.776001H119.728V3.224ZM125.656 3.224C128.05 3.224 129.336 3.70658 129.965 4.25011L132.579 1.22189C130.873 -0.250581 128.415 -0.776001 125.656 -0.776001V3.224ZM129.988 4.26904C130.574 4.76064 131.048 5.63837 131.048 7.344H135.048C135.048 4.88962 134.338 2.69536 132.557 1.20296L129.988 4.26904ZM131.048 7.344C131.048 9.0145 130.572 9.84697 129.985 10.3102L132.463 13.4498C134.309 11.993 135.048 9.80149 135.048 7.344H131.048ZM129.975 10.3183C129.289 10.8666 127.989 11.32 125.704 11.32V15.32C128.379 15.32 130.759 14.8134 132.473 13.4417L129.975 10.3183ZM125.704 11.32H123.472V15.32H125.704V11.32ZM121.472 13.32V16.968H125.472V13.32H121.472ZM123.472 18.968H133.912V14.968H123.472V18.968ZM125.992 12.08C127.359 12.08 128.972 11.8374 130.02 10.6766L127.052 7.99543C127.144 7.89369 127.183 7.92168 127.003 7.97441C126.819 8.02814 126.498 8.08 125.992 8.08V12.08ZM130.041 10.653C130.918 9.65104 131.208 8.37482 131.208 7.128H127.208C127.208 7.80118 127.05 7.99696 127.031 8.01899L130.041 10.653ZM131.208 7.128C131.208 5.75411 130.771 4.30651 129.44 3.40682L127.2 6.72118C127.19 6.71391 127.174 6.70037 127.159 6.68261C127.145 6.66541 127.143 6.65773 127.149 6.67042C127.162 6.70142 127.208 6.83316 127.208 7.128H131.208ZM129.491 3.44264C128.404 2.65759 126.986 2.44 125.608 2.44V6.44C126.694 6.44 127.084 6.63841 127.149 6.68536L129.491 3.44264ZM125.608 2.44H123.472V6.44H125.608V2.44ZM121.472 4.44V10.08H125.472V4.44H121.472ZM123.472 12.08H125.992V8.08H123.472V12.08ZM150.154 16.968H152.154V14.968H150.154V16.968ZM150.154 18V20H152.154V18H150.154ZM133.642 18H131.642V20H133.642V18ZM133.642 16.968V14.968H131.642V16.968H133.642ZM135.97 16.968V18.968H137.97V16.968H135.97ZM135.97 1.224V-0.776001H133.97V1.224H135.97ZM147.514 2.736L146.208 4.25011L146.219 4.25966L146.23 4.26904L147.514 2.736ZM147.466 11.88L146.227 10.3102L146.217 10.3183L147.466 11.88ZM139.714 13.32V11.32H137.714V13.32H139.714ZM139.714 16.968H137.714V18.968H139.714V16.968ZM144.778 9.336L146.262 10.6766L146.273 10.6649L146.283 10.653L144.778 9.336ZM144.562 5.064L143.391 6.68536L143.417 6.70367L143.443 6.72118L144.562 5.064ZM139.714 4.44V2.44H137.714V4.44H139.714ZM139.714 10.08H137.714V12.08H139.714V10.08ZM148.154 16.968V18H152.154V16.968H148.154ZM150.154 16H133.642V20H150.154V16ZM135.642 18V16.968H131.642V18H135.642ZM133.642 18.968H135.97V14.968H133.642V18.968ZM137.97 16.968V1.224H133.97V16.968H137.97ZM135.97 3.224H141.898V-0.776001H135.97V3.224ZM141.898 3.224C144.292 3.224 145.578 3.70658 146.208 4.25011L148.821 1.22189C147.115 -0.250581 144.657 -0.776001 141.898 -0.776001V3.224ZM146.23 4.26904C146.817 4.76064 147.29 5.63837 147.29 7.344H151.29C151.29 4.88962 150.58 2.69536 148.799 1.20296L146.23 4.26904ZM147.29 7.344C147.29 9.0145 146.814 9.84697 146.227 10.3102L148.706 13.4498C150.551 11.993 151.29 9.80149 151.29 7.344H147.29ZM146.217 10.3183C145.531 10.8666 144.231 11.32 141.946 11.32V15.32C144.621 15.32 147.001 14.8134 148.716 13.4417L146.217 10.3183ZM141.946 11.32H139.714V15.32H141.946V11.32ZM137.714 13.32V16.968H141.714V13.32H137.714ZM139.714 18.968H150.154V14.968H139.714V18.968ZM142.234 12.08C143.601 12.08 145.214 11.8374 146.262 10.6766L143.294 7.99543C143.386 7.89369 143.425 7.92168 143.245 7.97441C143.061 8.02814 142.74 8.08 142.234 8.08V12.08ZM146.283 10.653C147.16 9.65104 147.45 8.37482 147.45 7.128H143.45C143.45 7.80118 143.292 7.99696 143.273 8.01899L146.283 10.653ZM147.45 7.128C147.45 5.75411 147.014 4.30651 145.682 3.40682L143.443 6.72118C143.432 6.71391 143.416 6.70037 143.401 6.68261C143.387 6.66541 143.386 6.65773 143.391 6.67042C143.404 6.70142 143.45 6.83316 143.45 7.128H147.45ZM145.733 3.44264C144.646 2.65759 143.228 2.44 141.85 2.44V6.44C142.937 6.44 143.326 6.63841 143.391 6.68536L145.733 3.44264ZM141.85 2.44H139.714V6.44H141.85V2.44ZM137.714 4.44V10.08H141.714V4.44H137.714ZM139.714 12.08H142.234V8.08H139.714V12.08Z" fill="black" mask="url(#path-1-outside-1_237_3789)"/>
</g>
<defs>
<filter id="filter0_d_237_3789" x="0.734375" y="0.84375" width="159.422" height="37.1562" filterUnits="userSpaceOnUse" color-interpolation-filters="sRGB">
<feFlood flood-opacity="0" result="BackgroundImageFix"/>
<feColorMatrix in="SourceAlpha" type="matrix" values="0 0 0 0 0 0 0 0 0 0 0 0 0 0 0 0 0 0 127 0" result="hardAlpha"/>
<feOffset dy="10"/>
<feGaussianBlur stdDeviation="5"/>
<feComposite in2="hardAlpha" operator="out"/>
<feColorMatrix type="matrix" values="0 0 0 0 0 0 0 0 0 0 0 0 0 0 0 0 0 0 0.58 0"/>
<feBlend mode="normal" in2="BackgroundImageFix" result="effect1_dropShadow_237_3789"/>
<feBlend mode="normal" in="SourceGraphic" in2="effect1_dropShadow_237_3789" result="shape"/>
</filter>
</defs>
</svg>
