<svg width="646" height="476" viewBox="0 0 646 476" fill="none" xmlns="http://www.w3.org/2000/svg">
<path d="M389 462H267.857L251.857 134.505L245 79.2523L306.257 24L371.629 72.7225L389 462Z" fill="url(#paint0_linear_247_3845)"/>
<path d="M389 462H267.857L251.857 134.505L245 79.2523L306.257 24L371.629 72.7225L389 462Z" fill="url(#paint1_linear_247_3845)" fill-opacity="0.2"/>
<path d="M389 462H267.857L251.857 134.505L245 79.2523L306.257 24L371.629 72.7225L389 462Z" fill="url(#paint2_linear_247_3845)" fill-opacity="0.2"/>
<g filter="url(#filter0_d_247_3845)">
<path d="M187.709 74.5098L4 462H124.574C124.574 462 284.549 102.97 310.182 74.5098C335.816 46.049 347.684 50.5429 371.894 74.5098C396.103 98.4766 273.517 -104.534 187.709 74.5098Z" fill="#FB1919"/>
</g>
<g filter="url(#filter1_d_247_3845)">
<path d="M454.709 74.5098L271 462H391.574C391.574 462 551.549 102.97 577.182 74.5098C602.816 46.049 614.684 50.5429 638.894 74.5098C663.103 98.4766 540.517 -104.534 454.709 74.5098Z" fill="#FB1919"/>
</g>
<defs>
<filter id="filter0_d_247_3845" x="0" y="0" width="379" height="476" filterUnits="userSpaceOnUse" color-interpolation-filters="sRGB">
<feFlood flood-opacity="0" result="BackgroundImageFix"/>
<feColorMatrix in="SourceAlpha" type="matrix" values="0 0 0 0 0 0 0 0 0 0 0 0 0 0 0 0 0 0 127 0" result="hardAlpha"/>
<feOffset dy="10"/>
<feGaussianBlur stdDeviation="2"/>
<feComposite in2="hardAlpha" operator="out"/>
<feColorMatrix type="matrix" values="0 0 0 0 0 0 0 0 0 0 0 0 0 0 0 0 0 0 0.3 0"/>
<feBlend mode="normal" in2="BackgroundImageFix" result="effect1_dropShadow_247_3845"/>
<feBlend mode="normal" in="SourceGraphic" in2="effect1_dropShadow_247_3845" result="shape"/>
</filter>
<filter id="filter1_d_247_3845" x="267" y="0" width="379" height="476" filterUnits="userSpaceOnUse" color-interpolation-filters="sRGB">
<feFlood flood-opacity="0" result="BackgroundImageFix"/>
<feColorMatrix in="SourceAlpha" type="matrix" values="0 0 0 0 0 0 0 0 0 0 0 0 0 0 0 0 0 0 127 0" result="hardAlpha"/>
<feOffset dy="10"/>
<feGaussianBlur stdDeviation="2"/>
<feComposite in2="hardAlpha" operator="out"/>
<feColorMatrix type="matrix" values="0 0 0 0 0 0 0 0 0 0 0 0 0 0 0 0 0 0 0.3 0"/>
<feBlend mode="normal" in2="BackgroundImageFix" result="effect1_dropShadow_247_3845"/>
<feBlend mode="normal" in="SourceGraphic" in2="effect1_dropShadow_247_3845" result="shape"/>
</filter>
<linearGradient id="paint0_linear_247_3845" x1="345.571" y1="-45.8188" x2="311.105" y2="461.6" gradientUnits="userSpaceOnUse">
<stop offset="0.215" stop-color="#FB1919"/>
<stop offset="0.4" stop-color="#FB1919"/>
<stop offset="0.745" stop-color="#861010" stop-opacity="0.5"/>
</linearGradient>
<linearGradient id="paint1_linear_247_3845" x1="183.743" y1="41.078" x2="437.825" y2="481.449" gradientUnits="userSpaceOnUse">
<stop stop-color="#0B0101"/>
<stop offset="0.065" stop-color="#0B0101" stop-opacity="0"/>
<stop offset="0.0651" stop-color="#0B0101"/>
<stop offset="0.275" stop-color="#0B0101"/>
<stop offset="0.425" stop-color="#0B0101"/>
<stop offset="0.565" stop-color="#0B0101"/>
<stop offset="0.715" stop-color="#0B0101"/>
<stop offset="0.812295" stop-color="#0E0606"/>
<stop offset="0.92" stop-color="#110B0B"/>
</linearGradient>
<linearGradient id="paint2_linear_247_3845" x1="317" y1="24" x2="317" y2="462" gradientUnits="userSpaceOnUse">
<stop offset="0.324497" stop-color="#0F0B0B" stop-opacity="0.25"/>
<stop offset="0.840397" stop-color="#0F0B0B"/>
</linearGradient>
</defs>
</svg>
